<svg width="345" height="36" viewBox="0 0 345 36" fill="none" xmlns="http://www.w3.org/2000/svg">
<path d="M73.9997 6.87842V23.2994H0V6.87842H73.9997Z" fill="#FFCC00"/>
<path d="M13.0134 9.82666L10.6492 13.0565H23.5345C24.1858 13.0565 24.1772 13.3053 23.8588 13.739C23.5355 14.1792 22.9945 14.9448 22.6652 15.392C22.4981 15.6189 22.1959 16.0324 23.1972 16.0324H28.4665C28.4665 16.0324 29.3158 14.8703 30.0276 13.8986C30.9962 12.577 30.1117 9.82679 26.6491 9.82679L13.0134 9.82666Z" fill="#D2002E"/>
<path d="M9.69274 20.3491L14.4415 13.8609H20.3343C20.9856 13.8609 20.9771 14.1098 20.6588 14.5434C20.3355 14.9837 19.7855 15.7411 19.4562 16.1883C19.289 16.4152 18.987 16.8293 19.9881 16.8293H27.8827C27.2262 17.7338 25.0965 20.349 21.2724 20.349L9.69274 20.3491ZM36.8889 16.8285L34.3137 20.3488H27.5208C27.5208 20.3488 30.0945 16.8293 30.0967 16.8293L36.8889 16.8285ZM47.2953 16.0324H30.6803L35.2239 9.82666H42.0148L39.4105 13.385H42.4418L45.0471 9.82666H51.8373L47.2953 16.0324ZM46.7121 16.8295L44.1358 20.3491H37.3453C37.3453 20.3491 39.9191 16.8295 39.9213 16.8295H46.7121ZM0 18.2173H10.0073L9.46066 18.965H0V18.2173ZM0 16.8295H11.024L10.4763 17.5761H0V16.8295ZM0 19.6059H8.99115L8.44711 20.3491H0V19.6059ZM74 18.965H64.0312L64.5784 18.2174H74V18.965ZM74 20.3491L63.0178 20.3501L63.5618 19.6059H74V20.3491ZM65.5938 16.8295H74V17.5765L65.0471 17.5772L65.5938 16.8295ZM61.242 9.82666L56.6992 16.0322H49.5033C49.5033 16.0322 54.0473 9.82666 54.0496 9.82666H61.242ZM48.9211 16.8295C48.9211 16.8295 48.4247 17.5116 48.1837 17.8394C47.3307 18.9986 48.0848 20.3491 50.8683 20.3491H61.7743L64.3504 16.8295H48.9211Z" fill="#D2002E"/>
<path d="M0 25.9692H74V26.3412H0V25.9692ZM0 27.705H74V28.077H0V27.705ZM0 29.4404H74V29.8124H0V29.4404Z" fill="#FFCC00"/>
<path d="M24.8486 29.8124H27.0757L27.4311 29.3279H25.7738L26.7032 28.0616H28.2125L28.568 27.577H27.0587L27.8829 26.4541H29.5403L29.8959 25.9695H27.6689L24.8486 29.8124ZM27.5818 29.8124H28.2652L30.5947 28.1828L30.5719 29.8124H31.2895L31.2949 27.8029L33.9788 25.9695H33.3295L31.1931 27.445L31.2164 25.9695H30.533L30.5122 27.8139L27.5818 29.8124ZM34.8409 26.4541H35.3251C35.6783 26.4541 36.0729 26.6302 35.7173 27.1146C35.3455 27.621 34.7761 27.7918 34.4228 27.7918H33.859L34.8409 26.4541ZM31.8067 29.8124H32.3762L33.5034 28.2763H34.0615C34.7792 28.2763 35.6905 27.9735 36.3168 27.12C36.9593 26.2446 36.4835 25.9692 35.6691 25.9692H34.6269L31.8067 29.8124ZM35.0865 29.8124H35.6561L36.9086 28.1056H37.2502C37.552 28.1056 37.7402 28.1056 37.6421 28.4799L37.2737 29.8124H37.9231L38.2946 28.2817C38.343 28.0451 38.3183 27.9625 38.19 27.8962L38.1981 27.8852C38.7162 27.808 39.3173 27.4778 39.6608 27.0098C40.3355 26.0905 39.6669 25.9692 38.8808 25.9692H37.9069L35.0865 29.8124ZM38.1208 26.4541H38.6675C39.1917 26.4541 39.3033 26.6743 39.0489 27.0209C38.7782 27.39 38.2895 27.621 37.7483 27.621H37.2642L38.1208 26.4541ZM38.5128 29.8124H40.7399L41.0952 29.3279H39.438L40.3672 28.0616H41.8766L42.2319 27.577H40.7228L41.5469 26.4541H43.2044L43.5601 25.9695H41.3331L38.5128 29.8124ZM46.3034 26.041C46.0987 25.9474 45.8175 25.9033 45.5556 25.9033C44.8379 25.9033 44.0131 26.2669 43.512 26.9495C42.6353 28.1443 44.5177 27.9075 43.8873 28.7664C43.556 29.2177 42.971 29.3941 42.6465 29.3941C42.3558 29.3941 42.095 29.2838 41.958 29.2067L41.5254 29.7188C41.7268 29.8014 41.9437 29.8785 42.2228 29.8785C43.0201 29.8785 43.9135 29.5533 44.5155 28.733C45.4447 27.4669 43.6107 27.6373 44.1523 26.8998C44.4474 26.4979 44.9041 26.3878 45.223 26.3878C45.5193 26.3878 45.6421 26.4375 45.8517 26.5475L46.3034 26.041ZM49.1512 26.041C48.9466 25.9474 48.6655 25.9033 48.4034 25.9033C47.6858 25.9033 46.861 26.2669 46.3599 26.9495C45.4831 28.1443 47.3656 27.9075 46.7351 28.7664C46.404 29.2177 45.8188 29.3941 45.4943 29.3941C45.2037 29.3941 44.9427 29.2838 44.8059 29.2067L44.3732 29.7188C44.5746 29.8014 44.7916 29.8785 45.0705 29.8785C45.8679 29.8785 46.7612 29.5533 47.3632 28.733C48.2926 27.4669 46.4587 27.6373 47.0001 26.8998C47.2951 26.4979 47.752 26.3878 48.0708 26.3878C48.3671 26.3878 48.4902 26.4375 48.6996 26.5475L49.1512 26.041Z" fill="#D2002E"/>
<path fill-rule="evenodd" clip-rule="evenodd" d="M137.453 26.4666C136.21 26.8108 134.59 26.9543 133.202 26.9543C129.588 26.9543 127.217 25.0895 127.217 21.6756C127.217 18.4338 129.443 16.3396 132.682 16.3396C133.405 16.3396 134.186 16.4256 134.648 16.6551V11.9502H137.453V26.4666ZM134.648 19.0649C134.215 18.8641 133.607 18.7494 132.913 18.7494C131.207 18.7494 130.08 19.7822 130.08 21.5895C130.08 23.5116 131.294 24.6018 133.289 24.6018C133.636 24.6018 134.186 24.6018 134.648 24.487V19.0649ZM160.5 26.4666C159.257 26.8108 157.637 26.9543 156.22 26.9543C152.635 26.9543 150.234 25.0895 150.234 21.6756C150.234 18.4338 152.461 16.3396 155.7 16.3396C156.452 16.3396 157.203 16.4256 157.666 16.6551V11.9502H160.5V26.4666ZM157.666 19.0649C157.232 18.8641 156.654 18.7494 155.96 18.7494C154.225 18.7494 153.097 19.7822 153.097 21.5895C153.097 23.5116 154.341 24.6018 156.336 24.6018C156.683 24.6018 157.203 24.6018 157.666 24.487V19.0649ZM141.877 19.0649C142.34 18.8641 143.005 18.8067 143.555 18.8067C145.29 18.8067 146.475 19.7822 146.475 21.5322C146.475 23.5977 145.145 24.5444 143.381 24.5731V26.9543H143.526C147.169 26.9543 149.338 24.9748 149.338 21.4461C149.338 18.233 147.025 16.3396 143.613 16.3396C141.877 16.3396 140.171 16.7412 139.044 17.2002V30.8272H141.877V19.0649Z" fill="#3F3F42"/>
<path fill-rule="evenodd" clip-rule="evenodd" d="M106.004 4.37842C105.847 4.37842 105.69 4.41343 105.567 4.4747L94.6033 10.4616L106.879 17.6213C106.992 17.6826 107.08 17.8314 107.08 17.9627V28.3959C107.08 28.5272 106.984 28.676 106.87 28.7373L106.205 29.1049C106.153 29.1312 106.083 29.1487 106.004 29.1487H105.987C105.908 29.1487 105.83 29.1399 105.777 29.1049L105.113 28.7373C104.999 28.676 104.911 28.5272 104.911 28.3959V19.0918C104.911 19.0217 104.859 18.943 104.798 18.908L94 12.606V24.9473C94 25.2274 94.1923 25.56 94.4372 25.7001L105.576 32.2734C105.698 32.3434 105.847 32.3784 106.004 32.3784C106.162 32.3784 106.319 32.3434 106.433 32.2734L117.572 25.7001C117.808 25.56 118 25.2187 118 24.9473V12.606L110.673 16.8773C110.56 16.9473 110.385 16.9386 110.271 16.8773L109.624 16.4922C109.572 16.4572 109.519 16.4047 109.484 16.3434C109.44 16.2646 109.423 16.1946 109.414 16.1246L109.397 15.3631C109.397 15.2318 109.475 15.083 109.589 15.013L117.397 10.4616L106.442 4.4747C106.319 4.40468 106.162 4.37842 106.004 4.37842Z" fill="url(#paint0_linear_1_1187)"/>
<path fill-rule="evenodd" clip-rule="evenodd" d="M243.396 28.1424L240.569 24.9924L237.768 28.1424H231.876L237.635 21.711L231.876 15.2795H237.953L240.807 18.4036L243.555 15.2795H249.42L243.687 21.6842L249.5 28.1424H243.396ZM220.553 28.1424V7.87842H231.876V12.3956H225.348V15.2795H231.876V19.6244H225.348V23.6134H231.876V28.1424H220.553Z" fill="#FF7A08"/>
<path fill-rule="evenodd" clip-rule="evenodd" d="M215.779 7.87842V16.1715H215.724C214.667 14.9639 213.347 14.5444 211.815 14.5444C208.649 14.5444 206.296 16.7107 205.486 19.5495C204.554 16.4192 202.117 14.4861 198.47 14.4861C195.508 14.4861 193.201 15.8349 191.996 18.0003V15.2791H185.919V12.3952H192.551V7.87842H180.5V28.1424H185.919V19.6244H191.35C191.186 20.2548 191.072 20.9136 191.072 21.6277C191.072 25.8547 194.321 28.8214 198.47 28.8214C201.959 28.8214 204.257 27.1938 205.474 24.2275H200.83C200.203 25.1204 199.725 25.3835 198.469 25.3835C197.014 25.3835 195.758 24.1223 195.758 22.6254H205.239C205.651 25.98 208.256 28.8784 211.867 28.8784C213.426 28.8784 214.853 28.1183 215.724 26.8313H215.779V28.1429H220.553V7.87842H215.779ZM195.91 19.6849C196.21 18.3975 197.215 17.5572 198.469 17.5572C199.851 17.5572 200.804 18.3729 201.055 19.6849H195.91ZM212.879 25.0578C211.119 25.0578 210.025 23.4271 210.025 21.7267C210.025 19.9076 210.976 18.1586 212.879 18.1586C214.853 18.1586 215.638 19.9076 215.638 21.7267C215.638 23.4512 214.805 25.0578 212.879 25.0578Z" fill="#462895"/>
<path d="M284 35.5062C284.294 35.3573 291.949 32.0068 294.378 29.9965C296.881 27.9118 298.206 24.9336 298.206 21.3598V4.60748L297.985 4.53302C291.876 1.18256 284.294 1.40592 283.926 1.40592C283.632 1.40592 276.051 1.18256 269.942 4.53302L269.794 4.60748V21.4342C269.794 25.0081 271.119 27.9862 273.622 30.071C276.051 32.0813 283.706 35.4317 284 35.5062Z" fill="#341B14"/>
<path d="M284 35.8784C284 35.8784 275.904 32.3046 273.401 30.2943C270.751 28.0607 269.5 25.008 269.5 21.5087V4.08627C275.904 0.586901 284 0.884719 284 0.884719C284 0.884719 292.096 0.586901 298.5 4.08627V21.4342C298.5 24.9336 297.249 27.9862 294.599 30.2199C292.096 32.3046 284 35.8784 284 35.8784ZM270.678 21.5087C270.678 24.7847 271.855 27.465 274.137 29.3264C276.198 31.0389 282.307 33.7937 284 34.5382C285.693 33.7937 291.876 30.9644 293.863 29.3264C296.145 27.465 297.322 24.7102 297.322 21.5087V4.38409C288.784 3.56509 278.627 4.01182 270.678 11.4573V21.5087Z" fill="#FFB406"/>
<path d="M292.17 19.0513C293.274 19.7214 293.716 20.1681 293.789 20.9871C293.789 21.8806 293.2 22.4018 292.244 22.4018C291.434 22.4018 290.477 21.9551 289.815 21.3594V23.742C290.624 24.1887 291.581 24.561 292.612 24.561C295.114 24.561 296.292 22.7741 296.292 21.1361C296.365 19.647 295.924 18.4557 293.789 17.19C292.832 16.5943 292.096 16.222 292.096 15.3286C292.096 14.4351 292.906 14.0629 293.569 14.0629C294.452 14.0629 295.335 14.584 295.85 15.1052V12.8716C295.409 12.4993 294.452 11.9781 293.053 12.0526C291.36 12.127 289.594 13.3183 289.594 15.403C289.667 16.8177 290.109 17.86 292.17 19.0513ZM283.485 24.4121C283.706 24.4865 284.074 24.561 284.662 24.561C287.533 24.561 289.152 21.9551 289.152 18.2323C289.152 14.4351 287.459 12.127 284.442 12.127C283.043 12.127 281.939 12.4249 280.982 13.0205V29.8473H283.485V24.4121ZM283.485 14.2862C283.706 14.2118 284.074 14.0629 284.368 14.0629C285.84 14.0629 286.429 15.2541 286.429 18.1579C286.429 20.9871 285.693 22.3273 284.221 22.3273C283.853 22.3273 283.558 22.2529 283.411 22.1784V14.2862H283.485ZM275.756 24.561C277.302 24.561 278.627 24.1887 279.584 23.5186V12.2759H277.008V22.0295C276.713 22.2529 276.345 22.3273 275.83 22.3273C274.652 22.3273 274.505 21.2105 274.505 20.5404V12.2759H271.929V20.3915C271.929 23.1463 273.254 24.561 275.756 24.561Z" fill="#FFB406"/>
<defs>
<linearGradient id="paint0_linear_1_1187" x1="98.1827" y1="28.1508" x2="108.381" y2="19.6449" gradientUnits="userSpaceOnUse">
<stop stop-color="#A80034"/>
<stop offset="1" stop-color="#DB0031"/>
</linearGradient>
</defs>
</svg>
