<svg width="26" height="12" viewBox="0 0 26 12" fill="none" xmlns="http://www.w3.org/2000/svg">
<path d="M10.8804 9.148H9.05643V11.5H6.52843V9.148H0.496427V7.404L5.77643 0.299999H8.49643L3.60043 7.036H6.60843V4.94H9.05643V7.036H10.8804V9.148ZM13.4402 11.628C13.0028 11.628 12.6348 11.4787 12.3362 11.18C12.0375 10.8813 11.8882 10.508 11.8882 10.06C11.8882 9.60133 12.0375 9.23333 12.3362 8.956C12.6348 8.668 13.0028 8.524 13.4402 8.524C13.8775 8.524 14.2455 8.668 14.5442 8.956C14.8428 9.23333 14.9922 9.60133 14.9922 10.06C14.9922 10.508 14.8428 10.8813 14.5442 11.18C14.2455 11.4787 13.8775 11.628 13.4402 11.628ZM20.0917 0.108C21.6597 0.108 22.8863 0.588 23.7717 1.548C24.657 2.49733 25.0997 3.868 25.0997 5.66C25.0997 6.92933 24.8597 8.01733 24.3797 8.924C23.9103 9.83067 23.2437 10.5187 22.3797 10.988C21.5157 11.4573 20.5183 11.692 19.3877 11.692C18.7903 11.692 18.2197 11.628 17.6757 11.5C17.1317 11.3613 16.6677 11.1693 16.2837 10.924L17.2437 9.02C17.7877 9.39333 18.4863 9.58 19.3397 9.58C20.289 9.58 21.041 9.30267 21.5957 8.748C22.1503 8.18267 22.449 7.372 22.4917 6.316C21.8197 6.988 20.8917 7.324 19.7077 7.324C18.993 7.324 18.3423 7.18 17.7557 6.892C17.169 6.604 16.705 6.19867 16.3637 5.676C16.0223 5.14267 15.8517 4.52933 15.8517 3.836C15.8517 3.08933 16.0383 2.43333 16.4117 1.868C16.785 1.30267 17.2917 0.870666 17.9317 0.572C18.5823 0.262666 19.3023 0.108 20.0917 0.108ZM20.2837 5.388C20.849 5.388 21.3077 5.23333 21.6597 4.924C22.0223 4.604 22.2037 4.19867 22.2037 3.708C22.2037 3.21733 22.0277 2.81733 21.6757 2.508C21.3343 2.19867 20.8597 2.044 20.2517 2.044C19.697 2.044 19.2437 2.19333 18.8917 2.492C18.5503 2.79067 18.3797 3.196 18.3797 3.708C18.3797 4.22 18.5503 4.63067 18.8917 4.94C19.2437 5.23867 19.7077 5.388 20.2837 5.388Z" fill="black"/>
</svg>

