<svg width="58" height="10" viewBox="0 0 58 10" fill="none" xmlns="http://www.w3.org/2000/svg">
<path d="M7.50043 7.94V9.5H0.996427V1.1H7.34443V2.66H2.92843V4.484H6.82843V5.996H2.92843V7.94H7.50043ZM12.9372 9.5L11.5212 7.52L10.0572 9.5H8.01718L10.5012 6.248L8.10118 3.044H10.2012L11.5692 4.928L12.9732 3.044H14.9652L12.5652 6.2L15.0612 9.5H12.9372ZM18.8907 9.596C18.2027 9.596 17.5827 9.456 17.0307 9.176C16.4867 8.888 16.0587 8.492 15.7467 7.988C15.4427 7.484 15.2907 6.912 15.2907 6.272C15.2907 5.632 15.4427 5.06 15.7467 4.556C16.0587 4.052 16.4867 3.66 17.0307 3.38C17.5827 3.092 18.2027 2.948 18.8907 2.948C19.5707 2.948 20.1627 3.092 20.6667 3.38C21.1787 3.66 21.5507 4.064 21.7827 4.592L20.3307 5.372C19.9947 4.78 19.5107 4.484 18.8787 4.484C18.3907 4.484 17.9867 4.644 17.6667 4.964C17.3467 5.284 17.1867 5.72 17.1867 6.272C17.1867 6.824 17.3467 7.26 17.6667 7.58C17.9867 7.9 18.3907 8.06 18.8787 8.06C19.5187 8.06 20.0027 7.764 20.3307 7.172L21.7827 7.964C21.5507 8.476 21.1787 8.876 20.6667 9.164C20.1627 9.452 19.5707 9.596 18.8907 9.596ZM29.1025 6.296C29.1025 6.32 29.0905 6.488 29.0665 6.8H24.1825C24.2705 7.2 24.4785 7.516 24.8065 7.748C25.1345 7.98 25.5425 8.096 26.0305 8.096C26.3665 8.096 26.6625 8.048 26.9185 7.952C27.1825 7.848 27.4265 7.688 27.6505 7.472L28.6465 8.552C28.0385 9.248 27.1505 9.596 25.9825 9.596C25.2545 9.596 24.6105 9.456 24.0505 9.176C23.4905 8.888 23.0585 8.492 22.7545 7.988C22.4505 7.484 22.2985 6.912 22.2985 6.272C22.2985 5.64 22.4465 5.072 22.7425 4.568C23.0465 4.056 23.4585 3.66 23.9785 3.38C24.5065 3.092 25.0945 2.948 25.7425 2.948C26.3745 2.948 26.9465 3.084 27.4585 3.356C27.9705 3.628 28.3705 4.02 28.6585 4.532C28.9545 5.036 29.1025 5.624 29.1025 6.296ZM25.7545 4.364C25.3305 4.364 24.9745 4.484 24.6865 4.724C24.3985 4.964 24.2225 5.292 24.1585 5.708H27.3385C27.2745 5.3 27.0985 4.976 26.8105 4.736C26.5225 4.488 26.1705 4.364 25.7545 4.364ZM30.3488 0.595999H32.2208V9.5H30.3488V0.595999ZM33.9582 0.595999H35.8302V9.5H33.9582V0.595999ZM43.8916 6.296C43.8916 6.32 43.8796 6.488 43.8556 6.8H38.9716C39.0596 7.2 39.2676 7.516 39.5956 7.748C39.9236 7.98 40.3316 8.096 40.8196 8.096C41.1556 8.096 41.4516 8.048 41.7076 7.952C41.9716 7.848 42.2156 7.688 42.4396 7.472L43.4356 8.552C42.8276 9.248 41.9396 9.596 40.7716 9.596C40.0436 9.596 39.3996 9.456 38.8396 9.176C38.2796 8.888 37.8476 8.492 37.5436 7.988C37.2396 7.484 37.0876 6.912 37.0876 6.272C37.0876 5.64 37.2356 5.072 37.5316 4.568C37.8356 4.056 38.2476 3.66 38.7676 3.38C39.2956 3.092 39.8836 2.948 40.5316 2.948C41.1636 2.948 41.7356 3.084 42.2476 3.356C42.7596 3.628 43.1596 4.02 43.4476 4.532C43.7436 5.036 43.8916 5.624 43.8916 6.296ZM40.5436 4.364C40.1196 4.364 39.7636 4.484 39.4756 4.724C39.1876 4.964 39.0116 5.292 38.9476 5.708H42.1276C42.0636 5.3 41.8876 4.976 41.5996 4.736C41.3116 4.488 40.9596 4.364 40.5436 4.364ZM49.0619 2.948C49.8619 2.948 50.5059 3.188 50.9939 3.668C51.4899 4.148 51.7379 4.86 51.7379 5.804V9.5H49.8659V6.092C49.8659 5.58 49.7539 5.2 49.5299 4.952C49.3059 4.696 48.9819 4.568 48.5579 4.568C48.0859 4.568 47.7099 4.716 47.4299 5.012C47.1499 5.3 47.0099 5.732 47.0099 6.308V9.5H45.1379V3.044H46.9259V3.8C47.1739 3.528 47.4819 3.32 47.8499 3.176C48.2179 3.024 48.6219 2.948 49.0619 2.948ZM57.5987 9.188C57.4147 9.324 57.1867 9.428 56.9147 9.5C56.6507 9.564 56.3707 9.596 56.0747 9.596C55.3067 9.596 54.7107 9.4 54.2867 9.008C53.8707 8.616 53.6627 8.04 53.6627 7.28V4.628H52.6667V3.188H53.6627V1.616H55.5347V3.188H57.1427V4.628H55.5347V7.256C55.5347 7.528 55.6027 7.74 55.7387 7.892C55.8827 8.036 56.0827 8.108 56.3387 8.108C56.6347 8.108 56.8867 8.028 57.0947 7.868L57.5987 9.188Z" fill="black"/>
</svg>
