<svg width="47" height="10" viewBox="0 0 47 10" fill="none" xmlns="http://www.w3.org/2000/svg">
<path d="M3.81643 9.572C3.18443 9.572 2.61643 9.432 2.11243 9.152C1.60843 8.872 1.21243 8.488 0.924427 8C0.644427 7.504 0.504427 6.944 0.504427 6.32C0.504427 5.696 0.644427 5.14 0.924427 4.652C1.21243 4.156 1.60843 3.772 2.11243 3.5C2.61643 3.22 3.18443 3.08 3.81643 3.08C4.44843 3.08 5.01243 3.22 5.50843 3.5C6.01243 3.772 6.40443 4.156 6.68443 4.652C6.97243 5.14 7.11643 5.696 7.11643 6.32C7.11643 6.944 6.97243 7.504 6.68443 8C6.40443 8.488 6.01243 8.872 5.50843 9.152C5.01243 9.432 4.44843 9.572 3.81643 9.572ZM3.81643 8.564C4.22443 8.564 4.58843 8.472 4.90843 8.288C5.23643 8.096 5.49243 7.832 5.67643 7.496C5.86043 7.152 5.95243 6.76 5.95243 6.32C5.95243 5.88 5.86043 5.492 5.67643 5.156C5.49243 4.812 5.23643 4.548 4.90843 4.364C4.58843 4.18 4.22443 4.088 3.81643 4.088C3.40843 4.088 3.04043 4.18 2.71243 4.364C2.39243 4.548 2.13643 4.812 1.94443 5.156C1.76043 5.492 1.66843 5.88 1.66843 6.32C1.66843 6.76 1.76043 7.152 1.94443 7.496C2.13643 7.832 2.39243 8.096 2.71243 8.288C3.04043 8.472 3.40843 8.564 3.81643 8.564ZM14.6376 3.14V9.5H13.5456V8.54C13.3136 8.868 13.0056 9.124 12.6216 9.308C12.2456 9.484 11.8336 9.572 11.3856 9.572C10.5376 9.572 9.86961 9.34 9.38161 8.876C8.89361 8.404 8.64961 7.712 8.64961 6.8V3.14H9.80161V6.668C9.80161 7.284 9.94961 7.752 10.2456 8.072C10.5416 8.384 10.9656 8.54 11.5176 8.54C12.1256 8.54 12.6056 8.356 12.9576 7.988C13.3096 7.62 13.4856 7.1 13.4856 6.428V3.14H14.6376ZM20.4067 9.128C20.2387 9.272 20.0307 9.384 19.7827 9.464C19.5347 9.536 19.2787 9.572 19.0147 9.572C18.3747 9.572 17.8787 9.4 17.5267 9.056C17.1747 8.712 16.9987 8.22 16.9987 7.58V4.088H15.9187V3.14H16.9987V1.748H18.1507V3.14H19.9747V4.088H18.1507V7.532C18.1507 7.876 18.2347 8.14 18.4027 8.324C18.5787 8.508 18.8267 8.6 19.1467 8.6C19.4987 8.6 19.7987 8.5 20.0467 8.3L20.4067 9.128ZM27.7461 9.572C27.1141 9.572 26.5461 9.432 26.0421 9.152C25.5381 8.872 25.1421 8.488 24.8541 8C24.5741 7.504 24.4341 6.944 24.4341 6.32C24.4341 5.696 24.5741 5.14 24.8541 4.652C25.1421 4.156 25.5381 3.772 26.0421 3.5C26.5461 3.22 27.1141 3.08 27.7461 3.08C28.3781 3.08 28.9421 3.22 29.4381 3.5C29.9421 3.772 30.3341 4.156 30.6141 4.652C30.9021 5.14 31.0461 5.696 31.0461 6.32C31.0461 6.944 30.9021 7.504 30.6141 8C30.3341 8.488 29.9421 8.872 29.4381 9.152C28.9421 9.432 28.3781 9.572 27.7461 9.572ZM27.7461 8.564C28.1541 8.564 28.5181 8.472 28.8381 8.288C29.1661 8.096 29.4221 7.832 29.6061 7.496C29.7901 7.152 29.8821 6.76 29.8821 6.32C29.8821 5.88 29.7901 5.492 29.6061 5.156C29.4221 4.812 29.1661 4.548 28.8381 4.364C28.5181 4.18 28.1541 4.088 27.7461 4.088C27.3381 4.088 26.9701 4.18 26.6421 4.364C26.3221 4.548 26.0661 4.812 25.8741 5.156C25.6901 5.492 25.5981 5.88 25.5981 6.32C25.5981 6.76 25.6901 7.152 25.8741 7.496C26.0661 7.832 26.3221 8.096 26.6421 8.288C26.9701 8.472 27.3381 8.564 27.7461 8.564ZM34.9673 1.472C34.2793 1.472 33.9353 1.844 33.9353 2.588V3.14H35.7833V4.088H33.9593V9.5H32.8073V4.088H31.7273V3.14H32.8073V2.576C32.8073 1.944 32.9913 1.444 33.3593 1.076C33.7273 0.708 34.2433 0.524 34.9073 0.524C35.1633 0.524 35.4033 0.556 35.6273 0.62C35.8513 0.684 36.0433 0.776 36.2033 0.896L35.8553 1.772C35.5913 1.572 35.2953 1.472 34.9673 1.472ZM42.1564 4.352C43.3404 4.352 44.2164 4.584 44.7844 5.048C45.3524 5.504 45.6364 6.128 45.6364 6.92C45.6364 7.424 45.5124 7.88 45.2644 8.288C45.0164 8.696 44.6444 9.02 44.1484 9.26C43.6524 9.5 43.0404 9.62 42.3124 9.62C41.7124 9.62 41.1324 9.536 40.5724 9.368C40.0124 9.192 39.5404 8.952 39.1564 8.648L39.8164 7.436C40.1284 7.692 40.5004 7.896 40.9324 8.048C41.3724 8.192 41.8244 8.264 42.2884 8.264C42.8404 8.264 43.2724 8.152 43.5844 7.928C43.9044 7.696 44.0644 7.38 44.0644 6.98C44.0644 6.548 43.8924 6.224 43.5484 6.008C43.2124 5.784 42.6324 5.672 41.8084 5.672H39.7804L40.2124 1.1H45.1444V2.408H41.5324L41.3524 4.352H42.1564Z" fill="black"/>
</svg>
