<svg width="345" height="24" viewBox="0 0 345 24" fill="none" xmlns="http://www.w3.org/2000/svg">
<g clip-path="url(#clip0_1_1140)">
<path d="M8.72 16.816V18.032H1.584L1.328 17.2C1.776 16.6987 2.10667 16.2187 2.32 15.76C2.544 15.3013 2.656 14.736 2.656 14.064C2.656 13.7867 2.608 13.456 2.512 13.072H0.704V12.048H2.16C2.02133 11.6747 1.91467 11.3227 1.84 10.992C1.76533 10.6507 1.728 10.2773 1.728 9.872C1.728 9.18933 1.872 8.59733 2.16 8.096C2.45867 7.584 2.86933 7.18933 3.392 6.912C3.92533 6.63467 4.53333 6.496 5.216 6.496C6.304 6.496 7.14133 6.81067 7.728 7.44C8.31467 8.06933 8.62933 8.864 8.672 9.824H7.328C7.30667 9.19467 7.11467 8.688 6.752 8.304C6.4 7.92 5.888 7.728 5.216 7.728C4.59733 7.728 4.09067 7.90933 3.696 8.272C3.312 8.63467 3.12 9.18933 3.12 9.936C3.12 10.288 3.15733 10.624 3.232 10.944C3.30667 11.2533 3.41867 11.6213 3.568 12.048H6.672V13.072H3.888C3.984 13.456 4.032 13.7867 4.032 14.064C4.032 15.0773 3.65333 15.9947 2.896 16.816H8.72ZM10.5299 7.76V6.432H13.5379V18H12.0659V7.76H10.5299ZM16.0389 12.096C16.0389 10.2613 16.3375 8.832 16.9349 7.808C17.5322 6.77333 18.5775 6.256 20.0709 6.256C21.5535 6.256 22.5935 6.77333 23.1909 7.808C23.7882 8.832 24.0869 10.2613 24.0869 12.096C24.0869 13.9627 23.7882 15.4133 23.1909 16.448C22.5935 17.4827 21.5535 18 20.0709 18C18.5775 18 17.5322 17.4827 16.9349 16.448C16.3375 15.4133 16.0389 13.9627 16.0389 12.096ZM22.6469 12.096C22.6469 11.168 22.5829 10.384 22.4549 9.744C22.3375 9.09333 22.0869 8.57067 21.7029 8.176C21.3295 7.78133 20.7855 7.584 20.0709 7.584C19.3455 7.584 18.7909 7.78133 18.4069 8.176C18.0335 8.57067 17.7829 9.09333 17.6549 9.744C17.5375 10.384 17.4789 11.168 17.4789 12.096C17.4789 13.056 17.5375 13.8613 17.6549 14.512C17.7829 15.1627 18.0335 15.6853 18.4069 16.08C18.7909 16.4747 19.3455 16.672 20.0709 16.672C20.7855 16.672 21.3295 16.4747 21.7029 16.08C22.0869 15.6853 22.3375 15.1627 22.4549 14.512C22.5829 13.8613 22.6469 13.056 22.6469 12.096ZM27.9578 14.896C28.0644 15.504 28.3098 15.9733 28.6938 16.304C29.0884 16.6347 29.6164 16.8 30.2778 16.8C31.1631 16.8 31.8138 16.4533 32.2298 15.76C32.6564 15.0667 32.8591 13.8987 32.8378 12.256C32.6138 12.736 32.2404 13.1147 31.7178 13.392C31.1951 13.6587 30.6138 13.792 29.9738 13.792C29.2591 13.792 28.6191 13.648 28.0538 13.36C27.4991 13.0613 27.0618 12.6293 26.7418 12.064C26.4218 11.4987 26.2618 10.816 26.2618 10.016C26.2618 8.87467 26.5924 7.95733 27.2538 7.264C27.9151 6.56 28.8538 6.208 30.0698 6.208C31.5631 6.208 32.6084 6.69333 33.2058 7.664C33.8138 8.63467 34.1178 10.08 34.1178 12C34.1178 13.344 33.9951 14.4533 33.7498 15.328C33.5151 16.2027 33.1098 16.8693 32.5338 17.328C31.9684 17.7867 31.1898 18.016 30.1978 18.016C29.1098 18.016 28.2618 17.7227 27.6538 17.136C27.0458 16.5493 26.6991 15.8027 26.6138 14.896H27.9578ZM30.2138 12.56C30.9284 12.56 31.5151 12.3413 31.9738 11.904C32.4324 11.456 32.6618 10.8533 32.6618 10.096C32.6618 9.296 32.4378 8.65067 31.9898 8.16C31.5418 7.66933 30.9124 7.424 30.1018 7.424C29.3551 7.424 28.7578 7.65867 28.3098 8.128C27.8724 8.59733 27.6538 9.216 27.6538 9.984C27.6538 10.7627 27.8724 11.3867 28.3098 11.856C28.7471 12.3253 29.3818 12.56 30.2138 12.56ZM38.0359 14.896C38.1425 15.504 38.3879 15.9733 38.7719 16.304C39.1665 16.6347 39.6945 16.8 40.3559 16.8C41.2412 16.8 41.8919 16.4533 42.3079 15.76C42.7345 15.0667 42.9372 13.8987 42.9159 12.256C42.6919 12.736 42.3185 13.1147 41.7959 13.392C41.2732 13.6587 40.6919 13.792 40.0519 13.792C39.3372 13.792 38.6972 13.648 38.1319 13.36C37.5772 13.0613 37.1399 12.6293 36.8199 12.064C36.4999 11.4987 36.3399 10.816 36.3399 10.016C36.3399 8.87467 36.6705 7.95733 37.3319 7.264C37.9932 6.56 38.9319 6.208 40.1479 6.208C41.6412 6.208 42.6865 6.69333 43.2839 7.664C43.8919 8.63467 44.1959 10.08 44.1959 12C44.1959 13.344 44.0732 14.4533 43.8279 15.328C43.5932 16.2027 43.1879 16.8693 42.6119 17.328C42.0465 17.7867 41.2679 18.016 40.2759 18.016C39.1879 18.016 38.3399 17.7227 37.7319 17.136C37.1239 16.5493 36.7772 15.8027 36.6919 14.896H38.0359ZM40.2919 12.56C41.0065 12.56 41.5932 12.3413 42.0519 11.904C42.5105 11.456 42.7399 10.8533 42.7399 10.096C42.7399 9.296 42.5159 8.65067 42.0679 8.16C41.6199 7.66933 40.9905 7.424 40.1799 7.424C39.4332 7.424 38.8359 7.65867 38.3879 8.128C37.9505 8.59733 37.7319 9.216 37.7319 9.984C37.7319 10.7627 37.9505 11.3867 38.3879 11.856C38.8252 12.3253 39.4599 12.56 40.2919 12.56Z" fill="#1F1F1F"/>
<path d="M0 11L46.5 11.5L12 14L52 15.5" stroke="#FF4053"/>
</g>
<path d="M59.632 11.52V12.752H51.216V11.52H59.632ZM68.9401 7.568L64.4921 18H63.0201L67.5321 7.712H61.3561V6.464H68.9401V7.568ZM77.9305 7.696H72.3145V11.344C72.5598 11.0027 72.9225 10.7253 73.4025 10.512C73.8825 10.288 74.3998 10.176 74.9545 10.176C75.8398 10.176 76.5598 10.3627 77.1145 10.736C77.6692 11.0987 78.0638 11.5733 78.2985 12.16C78.5438 12.736 78.6665 13.3493 78.6665 14C78.6665 14.768 78.5225 15.456 78.2345 16.064C77.9465 16.672 77.5038 17.152 76.9065 17.504C76.3198 17.856 75.5892 18.032 74.7145 18.032C73.5945 18.032 72.6878 17.744 71.9945 17.168C71.3012 16.592 70.8798 15.824 70.7305 14.864H72.1545C72.2932 15.472 72.5865 15.9467 73.0345 16.288C73.4825 16.6293 74.0478 16.8 74.7305 16.8C75.5732 16.8 76.2078 16.5493 76.6345 16.048C77.0612 15.536 77.2745 14.864 77.2745 14.032C77.2745 13.2 77.0612 12.56 76.6345 12.112C76.2078 11.6533 75.5785 11.424 74.7465 11.424C74.1812 11.424 73.6852 11.5627 73.2585 11.84C72.8425 12.1067 72.5385 12.4747 72.3465 12.944H70.9705V6.416H77.9305V7.696ZM80.2814 9.04C80.2814 8.31467 80.5 7.73867 80.9374 7.312C81.3747 6.87467 81.9347 6.656 82.6174 6.656C83.3 6.656 83.86 6.87467 84.2974 7.312C84.7347 7.73867 84.9534 8.31467 84.9534 9.04C84.9534 9.776 84.7347 10.3627 84.2974 10.8C83.86 11.2267 83.3 11.44 82.6174 11.44C81.9347 11.44 81.3747 11.2267 80.9374 10.8C80.5 10.3627 80.2814 9.776 80.2814 9.04ZM89.6254 6.832L83.1454 18H81.7054L88.1854 6.832H89.6254ZM82.6174 7.552C82.2547 7.552 81.9667 7.68 81.7534 7.936C81.5507 8.18133 81.4494 8.54933 81.4494 9.04C81.4494 9.53067 81.5507 9.904 81.7534 10.16C81.9667 10.416 82.2547 10.544 82.6174 10.544C82.98 10.544 83.268 10.416 83.4814 10.16C83.6947 9.89333 83.8014 9.52 83.8014 9.04C83.8014 8.54933 83.6947 8.18133 83.4814 7.936C83.268 7.68 82.98 7.552 82.6174 7.552ZM86.4094 15.792C86.4094 15.056 86.628 14.4747 87.0654 14.048C87.5027 13.6107 88.0627 13.392 88.7454 13.392C89.428 13.392 89.9827 13.6107 90.4094 14.048C90.8467 14.4747 91.0654 15.056 91.0654 15.792C91.0654 16.5173 90.8467 17.0987 90.4094 17.536C89.9827 17.9733 89.428 18.192 88.7454 18.192C88.0627 18.192 87.5027 17.9787 87.0654 17.552C86.628 17.1147 86.4094 16.528 86.4094 15.792ZM88.7294 14.304C88.3667 14.304 88.0787 14.432 87.8654 14.688C87.652 14.9333 87.5454 15.3013 87.5454 15.792C87.5454 16.272 87.652 16.64 87.8654 16.896C88.0787 17.1413 88.3667 17.264 88.7294 17.264C89.092 17.264 89.38 17.1413 89.5934 16.896C89.8067 16.64 89.9134 16.272 89.9134 15.792C89.9134 15.3013 89.8067 14.9333 89.5934 14.688C89.38 14.432 89.092 14.304 88.7294 14.304Z" fill="#FF4053"/>
<defs>
<clipPath id="clip0_1_1140">
<rect width="46" height="24" fill="white"/>
</clipPath>
</defs>
</svg>
