<svg width="393" height="24" viewBox="0 0 393 24" fill="none" xmlns="http://www.w3.org/2000/svg">
<rect width="393" height="24" fill="#EC6566"/>
<path d="M75.0568 16V7.27273H76.1136V15.0625H80.1705V16H75.0568ZM83.5966 16.1534C83.1818 16.1534 82.8054 16.0753 82.4673 15.919C82.1293 15.7599 81.8608 15.5312 81.6619 15.233C81.4631 14.9318 81.3636 14.5682 81.3636 14.142C81.3636 13.767 81.4375 13.4631 81.5852 13.2301C81.733 12.9943 81.9304 12.8097 82.1776 12.6761C82.4247 12.5426 82.6974 12.4432 82.9957 12.3778C83.2969 12.3097 83.5994 12.2557 83.9034 12.2159C84.3011 12.1648 84.6236 12.1264 84.8707 12.1009C85.1207 12.0724 85.3026 12.0256 85.4162 11.9602C85.5327 11.8949 85.5909 11.7812 85.5909 11.6193V11.5852C85.5909 11.1648 85.4759 10.8381 85.2457 10.6051C85.0185 10.3722 84.6733 10.2557 84.2102 10.2557C83.7301 10.2557 83.3537 10.3608 83.081 10.571C82.8082 10.7812 82.6165 11.0057 82.5057 11.2443L81.5511 10.9034C81.7216 10.5057 81.9489 10.196 82.233 9.97443C82.5199 9.75 82.8324 9.59375 83.1705 9.50568C83.5114 9.41477 83.8466 9.36932 84.1761 9.36932C84.3864 9.36932 84.6278 9.39489 84.9006 9.44602C85.1761 9.49432 85.4418 9.59517 85.6974 9.74858C85.956 9.90199 86.1705 10.1335 86.3409 10.4432C86.5114 10.7528 86.5966 11.1676 86.5966 11.6875V16H85.5909V15.1136H85.5398C85.4716 15.2557 85.358 15.4077 85.1989 15.5696C85.0398 15.7315 84.8281 15.8693 84.5639 15.983C84.2997 16.0966 83.9773 16.1534 83.5966 16.1534ZM83.75 15.25C84.1477 15.25 84.483 15.1719 84.7557 15.0156C85.0313 14.8594 85.2386 14.6577 85.3778 14.4105C85.5199 14.1634 85.5909 13.9034 85.5909 13.6307V12.7102C85.5483 12.7614 85.4545 12.8082 85.3097 12.8509C85.1676 12.8906 85.0028 12.9261 84.8153 12.9574C84.6307 12.9858 84.4503 13.0114 84.2741 13.0341C84.1009 13.054 83.9602 13.071 83.8523 13.0852C83.5909 13.1193 83.3466 13.1747 83.1193 13.2514C82.8949 13.3253 82.7131 13.4375 82.5739 13.5881C82.4375 13.7358 82.3693 13.9375 82.3693 14.1932C82.3693 14.5426 82.4986 14.8068 82.7571 14.9858C83.0185 15.1619 83.3494 15.25 83.75 15.25ZM93.0685 10.9205L92.1651 11.1761C92.1083 11.0256 92.0245 10.8793 91.9137 10.7372C91.8058 10.5923 91.658 10.473 91.4705 10.3793C91.283 10.2855 91.043 10.2386 90.7504 10.2386C90.3498 10.2386 90.016 10.331 89.7489 10.5156C89.4847 10.6974 89.3526 10.929 89.3526 11.2102C89.3526 11.4602 89.4435 11.6577 89.6254 11.8026C89.8072 11.9474 90.0913 12.0682 90.4776 12.1648L91.4492 12.4034C92.0344 12.5455 92.4705 12.7628 92.7575 13.0554C93.0444 13.3452 93.1879 13.7187 93.1879 14.1761C93.1879 14.5511 93.0799 14.8864 92.864 15.1818C92.6509 15.4773 92.3526 15.7102 91.9691 15.8807C91.5856 16.0511 91.1396 16.1364 90.631 16.1364C89.9634 16.1364 89.4109 15.9915 88.9734 15.7017C88.5359 15.4119 88.2589 14.9886 88.1424 14.4318L89.0969 14.1932C89.1879 14.5455 89.3597 14.8097 89.6126 14.9858C89.8683 15.1619 90.2021 15.25 90.614 15.25C91.0827 15.25 91.4549 15.1506 91.7305 14.9517C92.0089 14.75 92.1481 14.5085 92.1481 14.2273C92.1481 14 92.0685 13.8097 91.9094 13.6562C91.7504 13.5 91.506 13.3835 91.1765 13.3068L90.0856 13.0511C89.4862 12.9091 89.0458 12.6889 88.7646 12.3906C88.4862 12.0895 88.3469 11.7131 88.3469 11.2614C88.3469 10.892 88.4506 10.5653 88.658 10.2812C88.8683 9.99716 89.1538 9.77415 89.5146 9.61222C89.8782 9.45028 90.2901 9.36932 90.7504 9.36932C91.3981 9.36932 91.9066 9.51136 92.2759 9.79545C92.6481 10.0795 92.9123 10.4545 93.0685 10.9205ZM97.5483 9.45455V10.3068H94.1562V9.45455H97.5483ZM95.1449 7.88636H96.1506V14.125C96.1506 14.4091 96.1918 14.6222 96.2741 14.7642C96.3594 14.9034 96.4673 14.9972 96.598 15.0455C96.7315 15.0909 96.8722 15.1136 97.0199 15.1136C97.1307 15.1136 97.2216 15.108 97.2926 15.0966C97.3636 15.0824 97.4205 15.071 97.4631 15.0625L97.6676 15.9659C97.5994 15.9915 97.5043 16.017 97.3821 16.0426C97.2599 16.071 97.1051 16.0852 96.9176 16.0852C96.6335 16.0852 96.3551 16.0241 96.0824 15.902C95.8125 15.7798 95.5881 15.5938 95.4091 15.3438C95.233 15.0938 95.1449 14.7784 95.1449 14.3977V7.88636ZM105.095 16.1364C104.482 16.1364 103.953 15.9915 103.51 15.7017C103.067 15.4119 102.726 15.0128 102.487 14.5043C102.249 13.9957 102.129 13.4148 102.129 12.7614C102.129 12.0966 102.251 11.5099 102.496 11.0014C102.743 10.4901 103.087 10.0909 103.527 9.80398C103.97 9.5142 104.487 9.36932 105.078 9.36932C105.538 9.36932 105.953 9.45455 106.322 9.625C106.692 9.79545 106.994 10.0341 107.23 10.3409C107.466 10.6477 107.612 11.0057 107.669 11.4148H106.663C106.587 11.1165 106.416 10.8523 106.152 10.6222C105.891 10.3892 105.538 10.2727 105.095 10.2727C104.703 10.2727 104.359 10.375 104.064 10.5795C103.771 10.7812 103.543 11.0668 103.378 11.4361C103.216 11.8026 103.135 12.233 103.135 12.7273C103.135 13.233 103.214 13.6733 103.374 14.0483C103.536 14.4233 103.763 14.7145 104.055 14.9219C104.351 15.1293 104.697 15.233 105.095 15.233C105.357 15.233 105.594 15.1875 105.807 15.0966C106.02 15.0057 106.2 14.875 106.348 14.7045C106.496 14.5341 106.601 14.3295 106.663 14.0909H107.669C107.612 14.4773 107.472 14.8253 107.247 15.1349C107.026 15.4418 106.732 15.6861 106.365 15.8679C106.001 16.0469 105.578 16.1364 105.095 16.1364ZM110.145 12.0625V16H109.139V7.27273H110.145V10.4773H110.23C110.384 10.1392 110.614 9.87074 110.92 9.67188C111.23 9.47017 111.642 9.36932 112.156 9.36932C112.602 9.36932 112.993 9.45881 113.328 9.63778C113.663 9.81392 113.923 10.0852 114.108 10.4517C114.295 10.8153 114.389 11.2784 114.389 11.8409V16H113.384V11.9091C113.384 11.3892 113.249 10.9872 112.979 10.7031C112.712 10.4162 112.341 10.2727 111.866 10.2727C111.537 10.2727 111.241 10.3423 110.98 10.4815C110.722 10.6207 110.517 10.8239 110.366 11.0909C110.219 11.358 110.145 11.6818 110.145 12.0625ZM118.155 16.1534C117.74 16.1534 117.364 16.0753 117.026 15.919C116.688 15.7599 116.419 15.5312 116.221 15.233C116.022 14.9318 115.922 14.5682 115.922 14.142C115.922 13.767 115.996 13.4631 116.144 13.2301C116.292 12.9943 116.489 12.8097 116.736 12.6761C116.983 12.5426 117.256 12.4432 117.554 12.3778C117.855 12.3097 118.158 12.2557 118.462 12.2159C118.86 12.1648 119.182 12.1264 119.429 12.1009C119.679 12.0724 119.861 12.0256 119.975 11.9602C120.091 11.8949 120.15 11.7812 120.15 11.6193V11.5852C120.15 11.1648 120.034 10.8381 119.804 10.6051C119.577 10.3722 119.232 10.2557 118.769 10.2557C118.289 10.2557 117.912 10.3608 117.64 10.571C117.367 10.7812 117.175 11.0057 117.064 11.2443L116.11 10.9034C116.28 10.5057 116.507 10.196 116.792 9.97443C117.078 9.75 117.391 9.59375 117.729 9.50568C118.07 9.41477 118.405 9.36932 118.735 9.36932C118.945 9.36932 119.186 9.39489 119.459 9.44602C119.735 9.49432 120 9.59517 120.256 9.74858C120.515 9.90199 120.729 10.1335 120.9 10.4432C121.07 10.7528 121.155 11.1676 121.155 11.6875V16H120.15V15.1136H120.098C120.03 15.2557 119.917 15.4077 119.757 15.5696C119.598 15.7315 119.387 15.8693 119.123 15.983C118.858 16.0966 118.536 16.1534 118.155 16.1534ZM118.309 15.25C118.706 15.25 119.042 15.1719 119.314 15.0156C119.59 14.8594 119.797 14.6577 119.936 14.4105C120.078 14.1634 120.15 13.9034 120.15 13.6307V12.7102C120.107 12.7614 120.013 12.8082 119.868 12.8509C119.726 12.8906 119.561 12.9261 119.374 12.9574C119.189 12.9858 119.009 13.0114 118.833 13.0341C118.659 13.054 118.519 13.071 118.411 13.0852C118.15 13.1193 117.905 13.1747 117.678 13.2514C117.453 13.3253 117.272 13.4375 117.132 13.5881C116.996 13.7358 116.928 13.9375 116.928 14.1932C116.928 14.5426 117.057 14.8068 117.316 14.9858C117.577 15.1619 117.908 15.25 118.309 15.25ZM123.996 12.0625V16H122.991V9.45455H123.962V10.4773H124.048C124.201 10.1449 124.434 9.87784 124.746 9.67614C125.059 9.47159 125.462 9.36932 125.957 9.36932C126.4 9.36932 126.788 9.46023 127.12 9.64205C127.452 9.82102 127.711 10.0938 127.896 10.4602C128.08 10.8239 128.173 11.2841 128.173 11.8409V16H127.167V11.9091C127.167 11.3949 127.033 10.9943 126.766 10.7074C126.499 10.4176 126.133 10.2727 125.667 10.2727C125.346 10.2727 125.059 10.3423 124.806 10.4815C124.556 10.6207 124.359 10.8239 124.214 11.0909C124.069 11.358 123.996 11.6818 123.996 12.0625ZM132.669 16.1364C132.056 16.1364 131.527 15.9915 131.084 15.7017C130.641 15.4119 130.3 15.0128 130.061 14.5043C129.823 13.9957 129.703 13.4148 129.703 12.7614C129.703 12.0966 129.826 11.5099 130.07 11.0014C130.317 10.4901 130.661 10.0909 131.101 9.80398C131.544 9.5142 132.061 9.36932 132.652 9.36932C133.113 9.36932 133.527 9.45455 133.897 9.625C134.266 9.79545 134.569 10.0341 134.804 10.3409C135.04 10.6477 135.186 11.0057 135.243 11.4148H134.238C134.161 11.1165 133.99 10.8523 133.726 10.6222C133.465 10.3892 133.113 10.2727 132.669 10.2727C132.277 10.2727 131.934 10.375 131.638 10.5795C131.346 10.7812 131.117 11.0668 130.952 11.4361C130.79 11.8026 130.709 12.233 130.709 12.7273C130.709 13.233 130.789 13.6733 130.948 14.0483C131.11 14.4233 131.337 14.7145 131.63 14.9219C131.925 15.1293 132.272 15.233 132.669 15.233C132.931 15.233 133.168 15.1875 133.381 15.0966C133.594 15.0057 133.775 14.875 133.922 14.7045C134.07 14.5341 134.175 14.3295 134.238 14.0909H135.243C135.186 14.4773 135.046 14.8253 134.821 15.1349C134.6 15.4418 134.306 15.6861 133.939 15.8679C133.576 16.0469 133.152 16.1364 132.669 16.1364ZM139.458 16.1364C138.827 16.1364 138.283 15.9972 137.826 15.7188C137.371 15.4375 137.02 15.0455 136.773 14.5426C136.529 14.0369 136.407 13.4489 136.407 12.7784C136.407 12.108 136.529 11.517 136.773 11.0057C137.02 10.4915 137.364 10.0909 137.804 9.80398C138.248 9.5142 138.765 9.36932 139.355 9.36932C139.696 9.36932 140.033 9.42614 140.365 9.53977C140.698 9.65341 141 9.83807 141.273 10.0938C141.546 10.3466 141.763 10.6818 141.925 11.0994C142.087 11.517 142.168 12.0312 142.168 12.642V13.0682H137.123V12.1989H141.145C141.145 11.8295 141.071 11.5 140.924 11.2102C140.779 10.9205 140.571 10.6918 140.301 10.5241C140.034 10.3565 139.719 10.2727 139.355 10.2727C138.955 10.2727 138.608 10.3722 138.316 10.571C138.026 10.767 137.803 11.0227 137.647 11.3381C137.49 11.6534 137.412 11.9915 137.412 12.3523V12.9318C137.412 13.4261 137.498 13.8452 137.668 14.1889C137.841 14.5298 138.081 14.7898 138.388 14.9688C138.695 15.1449 139.051 15.233 139.458 15.233C139.722 15.233 139.961 15.196 140.174 15.1222C140.39 15.0455 140.576 14.9318 140.732 14.7812C140.888 14.6278 141.009 14.4375 141.094 14.2102L142.066 14.483C141.963 14.8125 141.792 15.1023 141.55 15.3523C141.309 15.5994 141.01 15.7926 140.655 15.9318C140.3 16.0682 139.901 16.1364 139.458 16.1364ZM149.63 14.4659V8.84091H150.584V14.4659H149.63ZM147.294 12.1307V11.1761H152.919V12.1307H147.294ZM158.494 16V7.27273H163.727V8.21023H159.551V11.1591H163.335V12.0966H159.551V16H158.494ZM165.331 16V9.45455H166.302V10.4432H166.37C166.49 10.1193 166.706 9.85653 167.018 9.65483C167.331 9.45312 167.683 9.35227 168.075 9.35227C168.149 9.35227 168.241 9.35369 168.352 9.35653C168.463 9.35937 168.547 9.36364 168.603 9.36932V10.392C168.569 10.3835 168.491 10.3707 168.369 10.3537C168.25 10.3338 168.123 10.3239 167.99 10.3239C167.672 10.3239 167.387 10.3906 167.137 10.5241C166.89 10.6548 166.694 10.8366 166.549 11.0696C166.407 11.2997 166.336 11.5625 166.336 11.858V16H165.331ZM172.341 16.1364C171.71 16.1364 171.166 15.9972 170.708 15.7188C170.254 15.4375 169.903 15.0455 169.656 14.5426C169.412 14.0369 169.289 13.4489 169.289 12.7784C169.289 12.108 169.412 11.517 169.656 11.0057C169.903 10.4915 170.247 10.0909 170.687 9.80398C171.13 9.5142 171.647 9.36932 172.238 9.36932C172.579 9.36932 172.916 9.42614 173.248 9.53977C173.581 9.65341 173.883 9.83807 174.156 10.0938C174.429 10.3466 174.646 10.6818 174.808 11.0994C174.97 11.517 175.051 12.0312 175.051 12.642V13.0682H170.005V12.1989H174.028C174.028 11.8295 173.954 11.5 173.806 11.2102C173.662 10.9205 173.454 10.6918 173.184 10.5241C172.917 10.3565 172.602 10.2727 172.238 10.2727C171.838 10.2727 171.491 10.3722 171.199 10.571C170.909 10.767 170.686 11.0227 170.529 11.3381C170.373 11.6534 170.295 11.9915 170.295 12.3523V12.9318C170.295 13.4261 170.38 13.8452 170.551 14.1889C170.724 14.5298 170.964 14.7898 171.271 14.9688C171.578 15.1449 171.934 15.233 172.341 15.233C172.605 15.233 172.843 15.196 173.056 15.1222C173.272 15.0455 173.458 14.9318 173.615 14.7812C173.771 14.6278 173.892 14.4375 173.977 14.2102L174.949 14.483C174.846 14.8125 174.674 15.1023 174.433 15.3523C174.191 15.5994 173.893 15.7926 173.538 15.9318C173.183 16.0682 172.784 16.1364 172.341 16.1364ZM179.325 16.1364C178.694 16.1364 178.15 15.9972 177.693 15.7188C177.238 15.4375 176.887 15.0455 176.64 14.5426C176.396 14.0369 176.274 13.4489 176.274 12.7784C176.274 12.108 176.396 11.517 176.64 11.0057C176.887 10.4915 177.231 10.0909 177.672 9.80398C178.115 9.5142 178.632 9.36932 179.223 9.36932C179.564 9.36932 179.9 9.42614 180.233 9.53977C180.565 9.65341 180.868 9.83807 181.14 10.0938C181.413 10.3466 181.63 10.6818 181.792 11.0994C181.954 11.517 182.035 12.0312 182.035 12.642V13.0682H176.99V12.1989H181.012C181.012 11.8295 180.939 11.5 180.791 11.2102C180.646 10.9205 180.439 10.6918 180.169 10.5241C179.902 10.3565 179.586 10.2727 179.223 10.2727C178.822 10.2727 178.475 10.3722 178.183 10.571C177.893 10.767 177.67 11.0227 177.514 11.3381C177.358 11.6534 177.279 11.9915 177.279 12.3523V12.9318C177.279 13.4261 177.365 13.8452 177.535 14.1889C177.708 14.5298 177.949 14.7898 178.255 14.9688C178.562 15.1449 178.919 15.233 179.325 15.233C179.589 15.233 179.828 15.196 180.041 15.1222C180.257 15.0455 180.443 14.9318 180.599 14.7812C180.755 14.6278 180.876 14.4375 180.961 14.2102L181.933 14.483C181.831 14.8125 181.659 15.1023 181.417 15.3523C181.176 15.5994 180.877 15.7926 180.522 15.9318C180.167 16.0682 179.768 16.1364 179.325 16.1364ZM189.412 16.1364C188.866 16.1364 188.385 15.9986 187.967 15.723C187.549 15.4446 187.223 15.0526 186.987 14.5469C186.751 14.0384 186.633 13.4375 186.633 12.7443C186.633 12.0568 186.751 11.4602 186.987 10.9545C187.223 10.4489 187.551 10.0582 187.971 9.78267C188.392 9.5071 188.877 9.36932 189.429 9.36932C189.855 9.36932 190.191 9.44034 190.439 9.58239C190.689 9.72159 190.879 9.88068 191.01 10.0597C191.143 10.2358 191.247 10.3807 191.321 10.4943H191.406V7.27273H192.412V16H191.44V14.9943H191.321C191.247 15.1136 191.142 15.2642 191.005 15.446C190.869 15.625 190.674 15.7855 190.422 15.9276C190.169 16.0668 189.832 16.1364 189.412 16.1364ZM189.548 15.233C189.951 15.233 190.292 15.1278 190.571 14.9176C190.849 14.7045 191.061 14.4105 191.206 14.0355C191.35 13.6577 191.423 13.2216 191.423 12.7273C191.423 12.2386 191.352 11.8111 191.21 11.4446C191.068 11.0753 190.858 10.7884 190.579 10.5838C190.301 10.3764 189.957 10.2727 189.548 10.2727C189.122 10.2727 188.767 10.3821 188.483 10.6009C188.201 10.8168 187.99 11.1108 187.848 11.483C187.708 11.8523 187.639 12.267 187.639 12.7273C187.639 13.1932 187.71 13.6165 187.852 13.9972C187.997 14.375 188.21 14.6761 188.491 14.9006C188.775 15.1222 189.127 15.233 189.548 15.233ZM197.137 16.1364C196.507 16.1364 195.963 15.9972 195.505 15.7188C195.051 15.4375 194.7 15.0455 194.453 14.5426C194.208 14.0369 194.086 13.4489 194.086 12.7784C194.086 12.108 194.208 11.517 194.453 11.0057C194.7 10.4915 195.044 10.0909 195.484 9.80398C195.927 9.5142 196.444 9.36932 197.035 9.36932C197.376 9.36932 197.713 9.42614 198.045 9.53977C198.377 9.65341 198.68 9.83807 198.953 10.0938C199.225 10.3466 199.443 10.6818 199.605 11.0994C199.767 11.517 199.848 12.0312 199.848 12.642V13.0682H194.802V12.1989H198.825C198.825 11.8295 198.751 11.5 198.603 11.2102C198.458 10.9205 198.251 10.6918 197.981 10.5241C197.714 10.3565 197.399 10.2727 197.035 10.2727C196.635 10.2727 196.288 10.3722 195.995 10.571C195.706 10.767 195.483 11.0227 195.326 11.3381C195.17 11.6534 195.092 11.9915 195.092 12.3523V12.9318C195.092 13.4261 195.177 13.8452 195.348 14.1889C195.521 14.5298 195.761 14.7898 196.068 14.9688C196.375 15.1449 196.731 15.233 197.137 15.233C197.402 15.233 197.64 15.196 197.853 15.1222C198.069 15.0455 198.255 14.9318 198.412 14.7812C198.568 14.6278 198.689 14.4375 198.774 14.2102L199.745 14.483C199.643 14.8125 199.471 15.1023 199.23 15.3523C198.988 15.5994 198.69 15.7926 198.335 15.9318C197.98 16.0682 197.581 16.1364 197.137 16.1364ZM202.383 7.27273V16H201.377V7.27273H202.383ZM204.225 16V9.45455H205.231V16H204.225ZM204.737 8.36364C204.54 8.36364 204.371 8.29688 204.229 8.16335C204.09 8.02983 204.021 7.86932 204.021 7.68182C204.021 7.49432 204.09 7.33381 204.229 7.20028C204.371 7.06676 204.54 7 204.737 7C204.933 7 205.1 7.06676 205.239 7.20028C205.381 7.33381 205.452 7.49432 205.452 7.68182C205.452 7.86932 205.381 8.02983 205.239 8.16335C205.1 8.29688 204.933 8.36364 204.737 8.36364ZM212.425 9.45455L210.005 16H208.982L206.561 9.45455H207.652L209.459 14.6705H209.527L211.334 9.45455H212.425ZM216.262 16.1364C215.632 16.1364 215.088 15.9972 214.63 15.7188C214.176 15.4375 213.825 15.0455 213.578 14.5426C213.333 14.0369 213.211 13.4489 213.211 12.7784C213.211 12.108 213.333 11.517 213.578 11.0057C213.825 10.4915 214.169 10.0909 214.609 9.80398C215.052 9.5142 215.569 9.36932 216.16 9.36932C216.501 9.36932 216.838 9.42614 217.17 9.53977C217.502 9.65341 217.805 9.83807 218.078 10.0938C218.35 10.3466 218.568 10.6818 218.73 11.0994C218.892 11.517 218.973 12.0312 218.973 12.642V13.0682H213.927V12.1989H217.95C217.95 11.8295 217.876 11.5 217.728 11.2102C217.583 10.9205 217.376 10.6918 217.106 10.5241C216.839 10.3565 216.524 10.2727 216.16 10.2727C215.76 10.2727 215.413 10.3722 215.12 10.571C214.831 10.767 214.608 11.0227 214.451 11.3381C214.295 11.6534 214.217 11.9915 214.217 12.3523V12.9318C214.217 13.4261 214.302 13.8452 214.473 14.1889C214.646 14.5298 214.886 14.7898 215.193 14.9688C215.5 15.1449 215.856 15.233 216.262 15.233C216.527 15.233 216.765 15.196 216.978 15.1222C217.194 15.0455 217.38 14.9318 217.537 14.7812C217.693 14.6278 217.814 14.4375 217.899 14.2102L218.87 14.483C218.768 14.8125 218.596 15.1023 218.355 15.3523C218.113 15.5994 217.815 15.7926 217.46 15.9318C217.105 16.0682 216.706 16.1364 216.262 16.1364ZM220.502 16V9.45455H221.474V10.4432H221.542C221.662 10.1193 221.877 9.85653 222.19 9.65483C222.502 9.45312 222.855 9.35227 223.247 9.35227C223.321 9.35227 223.413 9.35369 223.524 9.35653C223.635 9.35937 223.718 9.36364 223.775 9.36932V10.392C223.741 10.3835 223.663 10.3707 223.541 10.3537C223.422 10.3338 223.295 10.3239 223.162 10.3239C222.843 10.3239 222.559 10.3906 222.309 10.5241C222.062 10.6548 221.866 10.8366 221.721 11.0696C221.579 11.2997 221.508 11.5625 221.508 11.858V16H220.502ZM225.814 18.4545C225.644 18.4545 225.492 18.4403 225.358 18.4119C225.225 18.3864 225.132 18.3608 225.081 18.3352L225.337 17.4489C225.581 17.5114 225.797 17.5341 225.985 17.517C226.172 17.5 226.338 17.4162 226.483 17.2656C226.631 17.1179 226.766 16.8778 226.888 16.5455L227.076 16.0341L224.655 9.45455H225.746L227.553 14.6705H227.621L229.428 9.45455H230.519L227.74 16.9545C227.615 17.2926 227.461 17.5724 227.276 17.794C227.091 18.0185 226.877 18.1847 226.632 18.2926C226.391 18.4006 226.118 18.4545 225.814 18.4545ZM235.204 16V15.233L238.085 12.0795C238.423 11.7102 238.701 11.3892 238.92 11.1165C239.139 10.8409 239.301 10.5824 239.406 10.3409C239.514 10.0966 239.568 9.84091 239.568 9.57386C239.568 9.26705 239.494 9.00142 239.346 8.77699C239.201 8.55256 239.002 8.37926 238.75 8.2571C238.497 8.13494 238.213 8.07386 237.897 8.07386C237.562 8.07386 237.27 8.14347 237.02 8.28267C236.772 8.41903 236.581 8.6108 236.444 8.85795C236.311 9.10511 236.244 9.39489 236.244 9.72727H235.238C235.238 9.21591 235.356 8.76705 235.592 8.38068C235.828 7.99432 236.149 7.69318 236.555 7.47727C236.964 7.26136 237.423 7.15341 237.931 7.15341C238.443 7.15341 238.896 7.26136 239.291 7.47727C239.686 7.69318 239.995 7.98437 240.22 8.35085C240.444 8.71733 240.556 9.125 240.556 9.57386C240.556 9.89489 240.498 10.2088 240.382 10.5156C240.268 10.8196 240.069 11.1591 239.785 11.5341C239.504 11.9062 239.113 12.3608 238.613 12.8977L236.653 14.9943V15.0625H240.71V16H235.204ZM246.237 11.1676V12.1051H242.419V11.1676H246.237ZM247.785 14.2102V13.3409L251.62 7.27273H252.251V8.61932H251.825L248.927 13.2045V13.2727H254.092V14.2102H247.785ZM251.893 16V13.946V13.5412V7.27273H252.898V16H251.893ZM261.552 16.1364C261.007 16.1364 260.525 15.9986 260.108 15.723C259.69 15.4446 259.363 15.0526 259.127 14.5469C258.892 14.0384 258.774 13.4375 258.774 12.7443C258.774 12.0568 258.892 11.4602 259.127 10.9545C259.363 10.4489 259.691 10.0582 260.112 9.78267C260.532 9.5071 261.018 9.36932 261.569 9.36932C261.995 9.36932 262.332 9.44034 262.579 9.58239C262.829 9.72159 263.02 9.88068 263.15 10.0597C263.284 10.2358 263.387 10.3807 263.461 10.4943H263.547V7.27273H264.552V16H263.581V14.9943H263.461C263.387 15.1136 263.282 15.2642 263.146 15.446C263.01 15.625 262.815 15.7855 262.562 15.9276C262.309 16.0668 261.973 16.1364 261.552 16.1364ZM261.689 15.233C262.092 15.233 262.433 15.1278 262.711 14.9176C262.99 14.7045 263.201 14.4105 263.346 14.0355C263.491 13.6577 263.564 13.2216 263.564 12.7273C263.564 12.2386 263.493 11.8111 263.35 11.4446C263.208 11.0753 262.998 10.7884 262.72 10.5838C262.441 10.3764 262.098 10.2727 261.689 10.2727C261.262 10.2727 260.907 10.3821 260.623 10.6009C260.342 10.8168 260.13 11.1108 259.988 11.483C259.849 11.8523 259.779 12.267 259.779 12.7273C259.779 13.1932 259.85 13.6165 259.993 13.9972C260.137 14.375 260.35 14.6761 260.632 14.9006C260.916 15.1222 261.268 15.233 261.689 15.233ZM268.46 16.1534C268.045 16.1534 267.669 16.0753 267.331 15.919C266.993 15.7599 266.724 15.5312 266.525 15.233C266.326 14.9318 266.227 14.5682 266.227 14.142C266.227 13.767 266.301 13.4631 266.449 13.2301C266.596 12.9943 266.794 12.8097 267.041 12.6761C267.288 12.5426 267.561 12.4432 267.859 12.3778C268.16 12.3097 268.463 12.2557 268.767 12.2159C269.164 12.1648 269.487 12.1264 269.734 12.1009C269.984 12.0724 270.166 12.0256 270.279 11.9602C270.396 11.8949 270.454 11.7812 270.454 11.6193V11.5852C270.454 11.1648 270.339 10.8381 270.109 10.6051C269.882 10.3722 269.537 10.2557 269.074 10.2557C268.593 10.2557 268.217 10.3608 267.944 10.571C267.672 10.7812 267.48 11.0057 267.369 11.2443L266.414 10.9034C266.585 10.5057 266.812 10.196 267.096 9.97443C267.383 9.75 267.696 9.59375 268.034 9.50568C268.375 9.41477 268.71 9.36932 269.039 9.36932C269.25 9.36932 269.491 9.39489 269.764 9.44602C270.039 9.49432 270.305 9.59517 270.561 9.74858C270.819 9.90199 271.034 10.1335 271.204 10.4432C271.375 10.7528 271.46 11.1676 271.46 11.6875V16H270.454V15.1136H270.403C270.335 15.2557 270.221 15.4077 270.062 15.5696C269.903 15.7315 269.691 15.8693 269.427 15.983C269.163 16.0966 268.841 16.1534 268.46 16.1534ZM268.613 15.25C269.011 15.25 269.346 15.1719 269.619 15.0156C269.895 14.8594 270.102 14.6577 270.241 14.4105C270.383 14.1634 270.454 13.9034 270.454 13.6307V12.7102C270.412 12.7614 270.318 12.8082 270.173 12.8509C270.031 12.8906 269.866 12.9261 269.679 12.9574C269.494 12.9858 269.314 13.0114 269.137 13.0341C268.964 13.054 268.824 13.071 268.716 13.0852C268.454 13.1193 268.21 13.1747 267.983 13.2514C267.758 13.3253 267.576 13.4375 267.437 13.5881C267.301 13.7358 267.233 13.9375 267.233 14.1932C267.233 14.5426 267.362 14.8068 267.62 14.9858C267.882 15.1619 268.213 15.25 268.613 15.25ZM273.709 18.4545C273.538 18.4545 273.386 18.4403 273.253 18.4119C273.119 18.3864 273.027 18.3608 272.976 18.3352L273.232 17.4489C273.476 17.5114 273.692 17.5341 273.879 17.517C274.067 17.5 274.233 17.4162 274.378 17.2656C274.526 17.1179 274.661 16.8778 274.783 16.5455L274.97 16.0341L272.55 9.45455H273.641L275.447 14.6705H275.516L277.322 9.45455H278.413L275.635 16.9545C275.51 17.2926 275.355 17.5724 275.17 17.794C274.986 18.0185 274.771 18.1847 274.527 18.2926C274.286 18.4006 274.013 18.4545 273.709 18.4545ZM284.377 10.9205L283.474 11.1761C283.417 11.0256 283.333 10.8793 283.222 10.7372C283.114 10.5923 282.967 10.473 282.779 10.3793C282.592 10.2855 282.352 10.2386 282.059 10.2386C281.658 10.2386 281.325 10.331 281.058 10.5156C280.793 10.6974 280.661 10.929 280.661 11.2102C280.661 11.4602 280.752 11.6577 280.934 11.8026C281.116 11.9474 281.4 12.0682 281.786 12.1648L282.758 12.4034C283.343 12.5455 283.779 12.7628 284.066 13.0554C284.353 13.3452 284.496 13.7187 284.496 14.1761C284.496 14.5511 284.388 14.8864 284.173 15.1818C283.96 15.4773 283.661 15.7102 283.278 15.8807C282.894 16.0511 282.448 16.1364 281.94 16.1364C281.272 16.1364 280.719 15.9915 280.282 15.7017C279.844 15.4119 279.567 14.9886 279.451 14.4318L280.406 14.1932C280.496 14.5455 280.668 14.8097 280.921 14.9858C281.177 15.1619 281.511 15.25 281.923 15.25C282.391 15.25 282.763 15.1506 283.039 14.9517C283.317 14.75 283.457 14.5085 283.457 14.2273C283.457 14 283.377 13.8097 283.218 13.6562C283.059 13.5 282.815 13.3835 282.485 13.3068L281.394 13.0511C280.795 12.9091 280.354 12.6889 280.073 12.3906C279.795 12.0895 279.656 11.7131 279.656 11.2614C279.656 10.892 279.759 10.5653 279.967 10.2812C280.177 9.99716 280.462 9.77415 280.823 9.61222C281.187 9.45028 281.599 9.36932 282.059 9.36932C282.707 9.36932 283.215 9.51136 283.585 9.79545C283.957 10.0795 284.221 10.4545 284.377 10.9205ZM289.385 16V9.45455H290.391V16H289.385ZM289.897 8.36364C289.701 8.36364 289.532 8.29688 289.39 8.16335C289.25 8.02983 289.181 7.86932 289.181 7.68182C289.181 7.49432 289.25 7.33381 289.39 7.20028C289.532 7.06676 289.701 7 289.897 7C290.093 7 290.26 7.06676 290.4 7.20028C290.542 7.33381 290.613 7.49432 290.613 7.68182C290.613 7.86932 290.542 8.02983 290.4 8.16335C290.26 8.29688 290.093 8.36364 289.897 8.36364ZM293.239 12.0625V16H292.233V9.45455H293.205V10.4773H293.29C293.443 10.1449 293.676 9.87784 293.989 9.67614C294.301 9.47159 294.705 9.36932 295.199 9.36932C295.642 9.36932 296.03 9.46023 296.362 9.64205C296.695 9.82102 296.953 10.0938 297.138 10.4602C297.322 10.8239 297.415 11.2841 297.415 11.8409V16H296.409V11.9091C296.409 11.3949 296.276 10.9943 296.009 10.7074C295.741 10.4176 295.375 10.2727 294.909 10.2727C294.588 10.2727 294.301 10.3423 294.048 10.4815C293.798 10.6207 293.601 10.8239 293.456 11.0909C293.311 11.358 293.239 11.6818 293.239 12.0625ZM308.491 7.27273H309.548V13.0511C309.548 13.6477 309.407 14.1804 309.126 14.6491C308.848 15.1151 308.454 15.483 307.946 15.7528C307.437 16.0199 306.841 16.1534 306.156 16.1534C305.471 16.1534 304.875 16.0199 304.366 15.7528C303.858 15.483 303.463 15.1151 303.181 14.6491C302.903 14.1804 302.764 13.6477 302.764 13.0511V7.27273H303.821V12.9659C303.821 13.392 303.914 13.7713 304.102 14.1037C304.289 14.4332 304.556 14.6932 304.903 14.8835C305.252 15.071 305.67 15.1648 306.156 15.1648C306.642 15.1648 307.059 15.071 307.409 14.8835C307.758 14.6932 308.025 14.4332 308.21 14.1037C308.397 13.7713 308.491 13.392 308.491 12.9659V7.27273ZM311.658 16V7.27273H312.715V11.6023H312.817L316.738 7.27273H318.119L314.454 11.2102L318.119 16H316.84L313.806 11.9432L312.715 13.1705V16H311.658Z" fill="white"/>
</svg>
