<svg width="90" height="42" viewBox="0 0 90 42" fill="none" xmlns="http://www.w3.org/2000/svg">
<path d="M21.4175 26.99V30.608H7.6475L6.9995 28.34C7.8455 27.584 8.4665 26.783 8.8625 25.937C9.2585 25.091 9.4565 24.047 9.4565 22.805V22.751H6.5135V19.646H8.7005C8.3585 18.422 8.1875 17.297 8.1875 16.271C8.1875 15.047 8.4575 13.985 8.9975 13.085C9.5555 12.185 10.3295 11.501 11.3195 11.033C12.3095 10.565 13.4435 10.331 14.7215 10.331C16.8095 10.331 18.4115 10.898 19.5275 12.032C20.6435 13.166 21.2375 14.642 21.3095 16.46H17.0705C17.0345 15.74 16.8365 15.173 16.4765 14.759C16.1165 14.327 15.5675 14.111 14.8295 14.111C14.1095 14.111 13.5515 14.336 13.1555 14.786C12.7595 15.218 12.5615 15.866 12.5615 16.73C12.5615 17.144 12.6065 17.567 12.6965 17.999C12.8045 18.431 12.9575 18.98 13.1555 19.646H18.0425V22.751H13.8305V22.832C13.8305 23.534 13.6865 24.263 13.3985 25.019C13.1105 25.775 12.6605 26.432 12.0485 26.99H21.4175ZM24.6598 13.625V10.817H30.2758V30.5H27.1708V13.625H24.6598ZM34.5043 20.402C34.5043 17.288 35.0263 14.858 36.0703 13.112C37.1323 11.348 38.9503 10.466 41.5243 10.466C44.0983 10.466 45.9073 11.348 46.9513 13.112C48.0133 14.858 48.5443 17.288 48.5443 20.402C48.5443 23.552 48.0133 26.018 46.9513 27.8C45.9073 29.564 44.0983 30.446 41.5243 30.446C38.9503 30.446 37.1323 29.564 36.0703 27.8C35.0263 26.018 34.5043 23.552 34.5043 20.402ZM45.5203 20.402C45.5203 18.944 45.4213 17.711 45.2233 16.703C45.0433 15.695 44.6653 14.876 44.0893 14.246C43.5133 13.598 42.6583 13.274 41.5243 13.274C40.3903 13.274 39.5353 13.598 38.9593 14.246C38.3833 14.876 37.9963 15.695 37.7983 16.703C37.6183 17.711 37.5283 18.944 37.5283 20.402C37.5283 21.914 37.6183 23.183 37.7983 24.209C37.9783 25.235 38.3563 26.063 38.9323 26.693C39.5263 27.323 40.3903 27.638 41.5243 27.638C42.6583 27.638 43.5133 27.323 44.0893 26.693C44.6833 26.063 45.0703 25.235 45.2503 24.209C45.4303 23.183 45.5203 21.914 45.5203 20.402ZM55.6352 25.154C55.8152 26.054 56.2022 26.738 56.7962 27.206C57.3902 27.674 58.1912 27.908 59.1992 27.908C60.4772 27.908 61.4132 27.404 62.0072 26.396C62.6012 25.388 62.8982 23.669 62.8982 21.239C62.4662 21.851 61.8542 22.328 61.0622 22.67C60.2882 22.994 59.4422 23.156 58.5242 23.156C57.3542 23.156 56.2922 22.922 55.3382 22.454C54.3842 21.968 53.6282 21.257 53.0702 20.321C52.5302 19.367 52.2602 18.215 52.2602 16.865C52.2602 14.885 52.8362 13.31 53.9882 12.14C55.1582 10.952 56.7602 10.358 58.7942 10.358C61.2422 10.358 62.9792 11.177 64.0052 12.815C65.0492 14.435 65.5712 16.928 65.5712 20.294C65.5712 22.616 65.3732 24.515 64.9772 25.991C64.5992 27.467 63.9332 28.583 62.9792 29.339C62.0252 30.095 60.7022 30.473 59.0102 30.473C57.0842 30.473 55.5992 29.969 54.5552 28.961C53.5112 27.953 52.9262 26.684 52.8002 25.154H55.6352ZM59.0642 20.564C60.1442 20.564 60.9902 20.231 61.6022 19.565C62.2322 18.881 62.5472 17.981 62.5472 16.865C62.5472 15.623 62.2142 14.66 61.5482 13.976C60.9002 13.274 60.0092 12.923 58.8752 12.923C57.7412 12.923 56.8412 13.283 56.1752 14.003C55.5272 14.705 55.2032 15.632 55.2032 16.784C55.2032 17.882 55.5182 18.791 56.1482 19.511C56.7962 20.213 57.7682 20.564 59.0642 20.564ZM72.7738 25.154C72.9538 26.054 73.3408 26.738 73.9348 27.206C74.5288 27.674 75.3298 27.908 76.3378 27.908C77.6158 27.908 78.5518 27.404 79.1458 26.396C79.7398 25.388 80.0368 23.669 80.0368 21.239C79.6048 21.851 78.9928 22.328 78.2008 22.67C77.4268 22.994 76.5808 23.156 75.6628 23.156C74.4928 23.156 73.4308 22.922 72.4768 22.454C71.5228 21.968 70.7668 21.257 70.2088 20.321C69.6688 19.367 69.3988 18.215 69.3988 16.865C69.3988 14.885 69.9748 13.31 71.1268 12.14C72.2968 10.952 73.8988 10.358 75.9328 10.358C78.3808 10.358 80.1178 11.177 81.1438 12.815C82.1878 14.435 82.7098 16.928 82.7098 20.294C82.7098 22.616 82.5118 24.515 82.1158 25.991C81.7378 27.467 81.0718 28.583 80.1178 29.339C79.1638 30.095 77.8408 30.473 76.1488 30.473C74.2228 30.473 72.7378 29.969 71.6938 28.961C70.6498 27.953 70.0648 26.684 69.9388 25.154H72.7738ZM76.2028 20.564C77.2828 20.564 78.1288 20.231 78.7408 19.565C79.3708 18.881 79.6858 17.981 79.6858 16.865C79.6858 15.623 79.3528 14.66 78.6868 13.976C78.0388 13.274 77.1478 12.923 76.0138 12.923C74.8798 12.923 73.9798 13.283 73.3138 14.003C72.6658 14.705 72.3418 15.632 72.3418 16.784C72.3418 17.882 72.6568 18.791 73.2868 19.511C73.9348 20.213 74.9068 20.564 76.2028 20.564Z" fill="white"/>
<path d="M10.5 18.5L71.3077 19.2778L26.1923 23.1667L78.5 25.5" stroke="#FF4053" stroke-width="2"/>
</svg>
