<svg width="179" height="32" viewBox="0 0 179 32" fill="none" xmlns="http://www.w3.org/2000/svg">
<path d="M9 21.737L13.3649 24.3458C14.1642 24.824 15.1424 24.1172 14.932 23.2233L13.7751 18.3174L17.6351 15.0122C18.3398 14.4093 17.9611 13.266 17.0356 13.1932L11.9555 12.7671L9.96763 8.13143C9.61003 7.28952 8.38997 7.28952 8.03237 8.13143L6.04451 12.7567L0.964434 13.1828C0.038871 13.2556 -0.339768 14.3989 0.364921 15.0018L4.22494 18.307L3.06799 23.2129C2.85763 24.1068 3.83578 24.8136 4.63513 24.3355L9 21.737Z" fill="#FEC400"/>
<path d="M31 21.737L35.3649 24.3458C36.1642 24.824 37.1424 24.1172 36.932 23.2233L35.7751 18.3174L39.6351 15.0122C40.3398 14.4093 39.9611 13.266 39.0356 13.1932L33.9555 12.7671L31.9676 8.13143C31.61 7.28952 30.39 7.28952 30.0324 8.13143L28.0445 12.7567L22.9644 13.1828C22.0389 13.2556 21.6602 14.3989 22.3649 15.0018L26.2249 18.307L25.068 23.2129C24.8576 24.1068 25.8358 24.8136 26.6351 24.3355L31 21.737Z" fill="#FEC400"/>
<path d="M53 21.737L57.3649 24.3458C58.1642 24.824 59.1424 24.1172 58.932 23.2233L57.7751 18.3174L61.6351 15.0122C62.3398 14.4093 61.9611 13.266 61.0356 13.1932L55.9555 12.7671L53.9676 8.13143C53.61 7.28952 52.39 7.28952 52.0324 8.13143L50.0445 12.7567L44.9644 13.1828C44.0389 13.2556 43.6602 14.3989 44.3649 15.0018L48.2249 18.307L47.068 23.2129C46.8576 24.1068 47.8358 24.8136 48.6351 24.3355L53 21.737Z" fill="#FEC400"/>
<path d="M75 21.737L79.3649 24.3458C80.1642 24.824 81.1424 24.1172 80.932 23.2233L79.7751 18.3174L83.6351 15.0122C84.3398 14.4093 83.9611 13.266 83.0356 13.1932L77.9555 12.7671L75.9676 8.13143C75.61 7.28952 74.39 7.28952 74.0324 8.13143L72.0445 12.7567L66.9644 13.1828C66.0389 13.2556 65.6602 14.3989 66.3649 15.0018L70.2249 18.307L69.068 23.2129C68.8576 24.1068 69.8358 24.8136 70.6351 24.3355L75 21.737Z" fill="#FEC400"/>
<path d="M97 21.737L101.365 24.3458C102.164 24.824 103.142 24.1172 102.932 23.2233L101.775 18.3174L105.635 15.0122C106.34 14.4093 105.961 13.266 105.036 13.1932L99.9555 12.7671L97.9676 8.13143C97.61 7.28952 96.39 7.28952 96.0324 8.13143L94.0445 12.7567L88.9644 13.1828C88.0389 13.2556 87.6602 14.3989 88.3649 15.0018L92.2249 18.307L91.068 23.2129C90.8576 24.1068 91.8358 24.8136 92.6351 24.3355L97 21.737Z" fill="#FEC400"/>
<path d="M115.64 19.424V18.32L121.256 10.544H123V18.16H124.6V19.424H123V22H121.56V19.424H115.64ZM121.624 12.064L117.32 18.16H121.624V12.064ZM126.759 22.096C126.481 22.096 126.247 22 126.055 21.808C125.863 21.616 125.767 21.3813 125.767 21.104C125.767 20.8267 125.863 20.592 126.055 20.4C126.247 20.208 126.481 20.112 126.759 20.112C127.025 20.112 127.249 20.208 127.431 20.4C127.623 20.592 127.719 20.8267 127.719 21.104C127.719 21.3813 127.623 21.616 127.431 21.808C127.249 22 127.025 22.096 126.759 22.096ZM131.286 18.896C131.393 19.504 131.638 19.9733 132.022 20.304C132.417 20.6347 132.945 20.8 133.606 20.8C134.491 20.8 135.142 20.4533 135.558 19.76C135.985 19.0667 136.187 17.8987 136.166 16.256C135.942 16.736 135.569 17.1147 135.046 17.392C134.523 17.6587 133.942 17.792 133.302 17.792C132.587 17.792 131.947 17.648 131.382 17.36C130.827 17.0613 130.39 16.6293 130.07 16.064C129.75 15.4987 129.59 14.816 129.59 14.016C129.59 12.8747 129.921 11.9573 130.582 11.264C131.243 10.56 132.182 10.208 133.398 10.208C134.891 10.208 135.937 10.6933 136.534 11.664C137.142 12.6347 137.446 14.08 137.446 16C137.446 17.344 137.323 18.4533 137.078 19.328C136.843 20.2027 136.438 20.8693 135.862 21.328C135.297 21.7867 134.518 22.016 133.526 22.016C132.438 22.016 131.59 21.7227 130.982 21.136C130.374 20.5493 130.027 19.8027 129.942 18.896H131.286ZM133.542 16.56C134.257 16.56 134.843 16.3413 135.302 15.904C135.761 15.456 135.99 14.8533 135.99 14.096C135.99 13.296 135.766 12.6507 135.318 12.16C134.87 11.6693 134.241 11.424 133.43 11.424C132.683 11.424 132.086 11.6587 131.638 12.128C131.201 12.5973 130.982 13.216 130.982 13.984C130.982 14.7627 131.201 15.3867 131.638 15.856C132.075 16.3253 132.71 16.56 133.542 16.56ZM149.438 6.928L145.054 24.72H143.614L147.982 6.928H149.438ZM163.009 11.696H157.393V15.344C157.638 15.0027 158.001 14.7253 158.481 14.512C158.961 14.288 159.478 14.176 160.033 14.176C160.918 14.176 161.638 14.3627 162.193 14.736C162.747 15.0987 163.142 15.5733 163.377 16.16C163.622 16.736 163.745 17.3493 163.745 18C163.745 18.768 163.601 19.456 163.313 20.064C163.025 20.672 162.582 21.152 161.985 21.504C161.398 21.856 160.667 22.032 159.793 22.032C158.673 22.032 157.766 21.744 157.073 21.168C156.379 20.592 155.958 19.824 155.809 18.864H157.233C157.371 19.472 157.665 19.9467 158.113 20.288C158.561 20.6293 159.126 20.8 159.809 20.8C160.651 20.8 161.286 20.5493 161.713 20.048C162.139 19.536 162.353 18.864 162.353 18.032C162.353 17.2 162.139 16.56 161.713 16.112C161.286 15.6533 160.657 15.424 159.825 15.424C159.259 15.424 158.763 15.5627 158.337 15.84C157.921 16.1067 157.617 16.4747 157.425 16.944H156.049V10.416H163.009V11.696ZM166.384 22.096C166.106 22.096 165.872 22 165.68 21.808C165.488 21.616 165.392 21.3813 165.392 21.104C165.392 20.8267 165.488 20.592 165.68 20.4C165.872 20.208 166.106 20.112 166.384 20.112C166.65 20.112 166.874 20.208 167.056 20.4C167.248 20.592 167.344 20.8267 167.344 21.104C167.344 21.3813 167.248 21.616 167.056 21.808C166.874 22 166.65 22.096 166.384 22.096ZM169.039 16.096C169.039 14.2613 169.338 12.832 169.935 11.808C170.532 10.7733 171.578 10.256 173.071 10.256C174.554 10.256 175.594 10.7733 176.191 11.808C176.788 12.832 177.087 14.2613 177.087 16.096C177.087 17.9627 176.788 19.4133 176.191 20.448C175.594 21.4827 174.554 22 173.071 22C171.578 22 170.532 21.4827 169.935 20.448C169.338 19.4133 169.039 17.9627 169.039 16.096ZM175.647 16.096C175.647 15.168 175.583 14.384 175.455 13.744C175.338 13.0933 175.087 12.5707 174.703 12.176C174.33 11.7813 173.786 11.584 173.071 11.584C172.346 11.584 171.791 11.7813 171.407 12.176C171.034 12.5707 170.783 13.0933 170.655 13.744C170.538 14.384 170.479 15.168 170.479 16.096C170.479 17.056 170.538 17.8613 170.655 18.512C170.783 19.1627 171.034 19.6853 171.407 20.08C171.791 20.4747 172.346 20.672 173.071 20.672C173.786 20.672 174.33 20.4747 174.703 20.08C175.087 19.6853 175.338 19.1627 175.455 18.512C175.583 17.8613 175.647 17.056 175.647 16.096Z" fill="black"/>
</svg>
