<svg width="151" height="32" viewBox="0 0 151 32" fill="none" xmlns="http://www.w3.org/2000/svg">
<path d="M1.358 11.76V10.432H4.366V22H2.894V11.76H1.358ZM6.867 16.096C6.867 14.2613 7.16567 12.832 7.763 11.808C8.36033 10.7733 9.40567 10.256 10.899 10.256C12.3817 10.256 13.4217 10.7733 14.019 11.808C14.6163 12.832 14.915 14.2613 14.915 16.096C14.915 17.9627 14.6163 19.4133 14.019 20.448C13.4217 21.4827 12.3817 22 10.899 22C9.40567 22 8.36033 21.4827 7.763 20.448C7.16567 19.4133 6.867 17.9627 6.867 16.096ZM13.475 16.096C13.475 15.168 13.411 14.384 13.283 13.744C13.1657 13.0933 12.915 12.5707 12.531 12.176C12.1577 11.7813 11.6137 11.584 10.899 11.584C10.1737 11.584 9.619 11.7813 9.235 12.176C8.86167 12.5707 8.611 13.0933 8.483 13.744C8.36567 14.384 8.307 15.168 8.307 16.096C8.307 17.056 8.36567 17.8613 8.483 18.512C8.611 19.1627 8.86167 19.6853 9.235 20.08C9.619 20.4747 10.1737 20.672 10.899 20.672C11.6137 20.672 12.1577 20.4747 12.531 20.08C12.915 19.6853 13.1657 19.1627 13.283 18.512C13.411 17.8613 13.475 17.056 13.475 16.096ZM16.9139 16.096C16.9139 14.2613 17.2125 12.832 17.8099 11.808C18.4072 10.7733 19.4525 10.256 20.9459 10.256C22.4285 10.256 23.4685 10.7733 24.0659 11.808C24.6632 12.832 24.9619 14.2613 24.9619 16.096C24.9619 17.9627 24.6632 19.4133 24.0659 20.448C23.4685 21.4827 22.4285 22 20.9459 22C19.4525 22 18.4072 21.4827 17.8099 20.448C17.2125 19.4133 16.9139 17.9627 16.9139 16.096ZM23.5219 16.096C23.5219 15.168 23.4579 14.384 23.3299 13.744C23.2125 13.0933 22.9619 12.5707 22.5779 12.176C22.2045 11.7813 21.6605 11.584 20.9459 11.584C20.2205 11.584 19.6659 11.7813 19.2819 12.176C18.9085 12.5707 18.6579 13.0933 18.5299 13.744C18.4125 14.384 18.3539 15.168 18.3539 16.096C18.3539 17.056 18.4125 17.8613 18.5299 18.512C18.6579 19.1627 18.9085 19.6853 19.2819 20.08C19.6659 20.4747 20.2205 20.672 20.9459 20.672C21.6605 20.672 22.2045 20.4747 22.5779 20.08C22.9619 19.6853 23.2125 19.1627 23.3299 18.512C23.4579 17.8613 23.5219 17.056 23.5219 16.096ZM26.9608 16.096C26.9608 14.2613 27.2594 12.832 27.8568 11.808C28.4541 10.7733 29.4994 10.256 30.9928 10.256C32.4754 10.256 33.5154 10.7733 34.1128 11.808C34.7101 12.832 35.0087 14.2613 35.0087 16.096C35.0087 17.9627 34.7101 19.4133 34.1128 20.448C33.5154 21.4827 32.4754 22 30.9928 22C29.4994 22 28.4541 21.4827 27.8568 20.448C27.2594 19.4133 26.9608 17.9627 26.9608 16.096ZM33.5688 16.096C33.5688 15.168 33.5048 14.384 33.3768 13.744C33.2594 13.0933 33.0088 12.5707 32.6248 12.176C32.2514 11.7813 31.7074 11.584 30.9928 11.584C30.2674 11.584 29.7128 11.7813 29.3288 12.176C28.9554 12.5707 28.7048 13.0933 28.5768 13.744C28.4594 14.384 28.4008 15.168 28.4008 16.096C28.4008 17.056 28.4594 17.8613 28.5768 18.512C28.7048 19.1627 28.9554 19.6853 29.3288 20.08C29.7128 20.4747 30.2674 20.672 30.9928 20.672C31.7074 20.672 32.2514 20.4747 32.6248 20.08C33.0088 19.6853 33.2594 19.1627 33.3768 18.512C33.5048 17.8613 33.5688 17.056 33.5688 16.096ZM37.0076 16.096C37.0076 14.2613 37.3063 12.832 37.9036 11.808C38.501 10.7733 39.5463 10.256 41.0396 10.256C42.5223 10.256 43.5623 10.7733 44.1596 11.808C44.757 12.832 45.0556 14.2613 45.0556 16.096C45.0556 17.9627 44.757 19.4133 44.1596 20.448C43.5623 21.4827 42.5223 22 41.0396 22C39.5463 22 38.501 21.4827 37.9036 20.448C37.3063 19.4133 37.0076 17.9627 37.0076 16.096ZM43.6156 16.096C43.6156 15.168 43.5516 14.384 43.4236 13.744C43.3063 13.0933 43.0556 12.5707 42.6716 12.176C42.2983 11.7813 41.7543 11.584 41.0396 11.584C40.3143 11.584 39.7596 11.7813 39.3756 12.176C39.0023 12.5707 38.7516 13.0933 38.6236 13.744C38.5063 14.384 38.4476 15.168 38.4476 16.096C38.4476 17.056 38.5063 17.8613 38.6236 18.512C38.7516 19.1627 39.0023 19.6853 39.3756 20.08C39.7596 20.4747 40.3143 20.672 41.0396 20.672C41.7543 20.672 42.2983 20.4747 42.6716 20.08C43.0556 19.6853 43.3063 19.1627 43.4236 18.512C43.5516 17.8613 43.6156 17.056 43.6156 16.096ZM55.6145 16.768H52.2065V20.224H50.8465V16.768H47.4545V15.536H50.8465V12.064H52.2065V15.536H55.6145V16.768ZM63.938 14.656C64.194 14.1547 64.5567 13.7653 65.026 13.488C65.506 13.2107 66.0873 13.072 66.77 13.072V14.576H66.386C64.754 14.576 63.938 15.4613 63.938 17.232V22H62.482V13.232H63.938V14.656ZM76.4508 17.28C76.4508 17.5573 76.4348 17.8507 76.4028 18.16H69.3948C69.4481 19.024 69.7414 19.7013 70.2748 20.192C70.8188 20.672 71.4748 20.912 72.2428 20.912C72.8721 20.912 73.3948 20.768 73.8108 20.48C74.2374 20.1813 74.5361 19.7867 74.7068 19.296H76.2748C76.0401 20.1387 75.5708 20.8267 74.8668 21.36C74.1628 21.8827 73.2881 22.144 72.2428 22.144C71.4108 22.144 70.6641 21.9573 70.0028 21.584C69.3521 21.2107 68.8401 20.6827 68.4668 20C68.0934 19.3067 67.9068 18.5067 67.9068 17.6C67.9068 16.6933 68.0881 15.8987 68.4508 15.216C68.8134 14.5333 69.3201 14.0107 69.9708 13.648C70.6321 13.2747 71.3894 13.088 72.2428 13.088C73.0748 13.088 73.8108 13.2693 74.4508 13.632C75.0908 13.9947 75.5814 14.496 75.9228 15.136C76.2748 15.7653 76.4508 16.48 76.4508 17.28ZM74.9468 16.976C74.9468 16.4213 74.8241 15.9467 74.5788 15.552C74.3334 15.1467 73.9974 14.8427 73.5708 14.64C73.1548 14.4267 72.6908 14.32 72.1788 14.32C71.4428 14.32 70.8134 14.5547 70.2908 15.024C69.7788 15.4933 69.4854 16.144 69.4108 16.976H74.9468ZM81.6366 20.656L84.3566 13.232H85.9086L82.4686 22H80.7726L77.3326 13.232H78.9006L81.6366 20.656ZM88.0934 11.808C87.816 11.808 87.5814 11.712 87.3894 11.52C87.1974 11.328 87.1014 11.0933 87.1014 10.816C87.1014 10.5387 87.1974 10.304 87.3894 10.112C87.5814 9.92 87.816 9.824 88.0934 9.824C88.36 9.824 88.584 9.92 88.7654 10.112C88.9574 10.304 89.0534 10.5387 89.0534 10.816C89.0534 11.0933 88.9574 11.328 88.7654 11.52C88.584 11.712 88.36 11.808 88.0934 11.808ZM88.7974 13.232V22H87.3414V13.232H88.7974ZM99.2789 17.28C99.2789 17.5573 99.2629 17.8507 99.2309 18.16H92.2229C92.2762 19.024 92.5695 19.7013 93.1029 20.192C93.6469 20.672 94.3029 20.912 95.0709 20.912C95.7002 20.912 96.2229 20.768 96.6389 20.48C97.0655 20.1813 97.3642 19.7867 97.5349 19.296H99.1029C98.8682 20.1387 98.3989 20.8267 97.6949 21.36C96.9909 21.8827 96.1162 22.144 95.0709 22.144C94.2389 22.144 93.4922 21.9573 92.8309 21.584C92.1802 21.2107 91.6682 20.6827 91.2949 20C90.9215 19.3067 90.7349 18.5067 90.7349 17.6C90.7349 16.6933 90.9162 15.8987 91.2789 15.216C91.6415 14.5333 92.1482 14.0107 92.7989 13.648C93.4602 13.2747 94.2175 13.088 95.0709 13.088C95.9029 13.088 96.6389 13.2693 97.2789 13.632C97.9189 13.9947 98.4095 14.496 98.7509 15.136C99.1029 15.7653 99.2789 16.48 99.2789 17.28ZM97.7749 16.976C97.7749 16.4213 97.6522 15.9467 97.4069 15.552C97.1615 15.1467 96.8255 14.8427 96.3989 14.64C95.9829 14.4267 95.5189 14.32 95.0069 14.32C94.2709 14.32 93.6415 14.5547 93.1189 15.024C92.6069 15.4933 92.3135 16.144 92.2389 16.976H97.7749ZM112.881 13.232L110.145 22H108.641L106.529 15.04L104.417 22H102.913L100.161 13.232H101.649L103.665 20.592L105.841 13.232H107.329L109.457 20.608L111.441 13.232H112.881ZM117.43 22.144C116.758 22.144 116.155 22.032 115.622 21.808C115.088 21.5733 114.667 21.2533 114.358 20.848C114.048 20.432 113.878 19.9573 113.846 19.424H115.35C115.392 19.8613 115.595 20.2187 115.958 20.496C116.331 20.7733 116.816 20.912 117.414 20.912C117.968 20.912 118.406 20.7893 118.726 20.544C119.046 20.2987 119.206 19.9893 119.206 19.616C119.206 19.232 119.035 18.9493 118.694 18.768C118.352 18.576 117.824 18.3893 117.11 18.208C116.459 18.0373 115.926 17.8667 115.51 17.696C115.104 17.5147 114.752 17.2533 114.454 16.912C114.166 16.56 114.022 16.1013 114.022 15.536C114.022 15.088 114.155 14.6773 114.422 14.304C114.688 13.9307 115.067 13.6373 115.558 13.424C116.048 13.2 116.608 13.088 117.238 13.088C118.208 13.088 118.992 13.3333 119.59 13.824C120.187 14.3147 120.507 14.9867 120.55 15.84H119.094C119.062 15.3813 118.875 15.0133 118.534 14.736C118.203 14.4587 117.755 14.32 117.19 14.32C116.667 14.32 116.251 14.432 115.942 14.656C115.632 14.88 115.478 15.1733 115.478 15.536C115.478 15.824 115.568 16.064 115.75 16.256C115.942 16.4373 116.176 16.5867 116.454 16.704C116.742 16.8107 117.136 16.9333 117.638 17.072C118.267 17.2427 118.779 17.4133 119.174 17.584C119.568 17.744 119.904 17.9893 120.182 18.32C120.47 18.6507 120.619 19.0827 120.63 19.616C120.63 20.096 120.496 20.528 120.23 20.912C119.963 21.296 119.584 21.6 119.094 21.824C118.614 22.0373 118.059 22.144 117.43 22.144Z" fill="black"/>
<path d="M130.75 16C130.75 10.6152 135.115 6.25 140.5 6.25C145.885 6.25 150.25 10.6152 150.25 16C150.25 21.3848 145.885 25.75 140.5 25.75C135.115 25.75 130.75 21.3848 130.75 16Z" fill="#B15FFF"/>
<path fill-rule="evenodd" clip-rule="evenodd" d="M141.075 21.1243C140.757 21.4416 140.243 21.4416 139.925 21.1243L135.375 16.5743C135.058 16.257 135.058 15.7426 135.375 15.4253C135.693 15.108 136.207 15.108 136.525 15.4253L139.687 18.5883L139.687 11.4498C139.687 11.0011 140.051 10.6373 140.5 10.6373C140.949 10.6373 141.312 11.0011 141.312 11.4498L141.312 18.5883L144.475 15.4253C144.793 15.108 145.307 15.108 145.625 15.4253C145.942 15.7426 145.942 16.257 145.625 16.5743L141.075 21.1243Z" fill="white"/>
</svg>
